<svg width="36" height="36" viewBox="0 0 36 36" fill="none" xmlns="http://www.w3.org/2000/svg">
<circle cx="18" cy="18" r="18" fill="#DA6939"/>
<path d="M13.1932 17.8295V17.6023C13.1932 16.6269 13.3849 15.7486 13.7685 14.9673C14.152 14.1861 14.706 13.5682 15.4304 13.1136C16.1548 12.6591 17.0284 12.4318 18.0511 12.4318C18.2405 12.4744 18.4157 12.5739 18.5767 12.7301C18.7424 12.8816 18.9342 13.0497 19.152 13.2344C19.3698 13.4143 19.6539 13.5682 20.0043 13.696C20.563 13.9138 21.0578 14.2311 21.4886 14.6477C21.9242 15.0644 22.2652 15.5616 22.5114 16.1392C22.7576 16.7121 22.8807 17.3419 22.8807 18.0284V18.2273C22.8807 19.108 22.6913 19.9271 22.3125 20.6847C21.9384 21.4375 21.3939 22.0459 20.679 22.5099C19.964 22.9692 19.0975 23.1989 18.0795 23.1989C17.0473 23.1989 16.1667 22.9621 15.4375 22.4886C14.7131 22.0152 14.1567 21.3736 13.7685 20.5639C13.3849 19.7543 13.1932 18.8428 13.1932 17.8295ZM15.5014 17.6023V17.8295C15.5014 18.4687 15.5866 19.0559 15.7571 19.5909C15.9323 20.1259 16.2093 20.5568 16.5881 20.8835C16.9669 21.2055 17.464 21.3665 18.0795 21.3665C18.6714 21.3665 19.1496 21.2055 19.5142 20.8835C19.8835 20.5568 20.151 20.1259 20.3168 19.5909C20.4872 19.0559 20.5724 18.4687 20.5724 17.8295V17.6023C20.5724 17.0057 20.4872 16.4541 20.3168 15.9474C20.151 15.4408 19.8812 15.0336 19.5071 14.7259C19.1378 14.4181 18.6525 14.2642 18.0511 14.2642C17.4498 14.2642 16.9621 14.4181 16.5881 14.7259C16.214 15.0336 15.9394 15.4408 15.7642 15.9474C15.589 16.4541 15.5014 17.0057 15.5014 17.6023ZM23.6903 12.4318V14.2642H18.0511V12.4318H23.6903Z" fill="white"/>
</svg>
