<svg width="36" height="36" viewBox="0 0 36 36" fill="none" xmlns="http://www.w3.org/2000/svg">
<circle cx="18" cy="18" r="18" fill="#3CB5E8"/>
<path d="M9.72266 16V17.0937H6.27344V16H9.72266ZM7.125 14.5625H8.53906V20.1953C8.53906 20.3854 8.56771 20.5313 8.625 20.6328C8.6849 20.7318 8.76302 20.7995 8.85938 20.8359C8.95573 20.8724 9.0625 20.8906 9.17969 20.8906C9.26823 20.8906 9.34896 20.8841 9.42188 20.8711C9.4974 20.8581 9.55469 20.8464 9.59375 20.8359L9.83203 21.9414C9.75651 21.9674 9.64844 21.9961 9.50781 22.0273C9.36979 22.0586 9.20052 22.0768 9 22.082C8.64583 22.0924 8.32682 22.0391 8.04297 21.9219C7.75911 21.8021 7.53385 21.6172 7.36719 21.3672C7.20313 21.1172 7.1224 20.8047 7.125 20.4297V14.5625ZM12.6318 22.1211C12.2516 22.1211 11.9092 22.0534 11.6045 21.918C11.3024 21.7799 11.0628 21.5768 10.8857 21.3086C10.7113 21.0404 10.624 20.7096 10.624 20.3164C10.624 19.9779 10.6865 19.6979 10.8115 19.4766C10.9365 19.2552 11.1071 19.0781 11.3232 18.9453C11.5394 18.8125 11.7829 18.7122 12.0537 18.6445C12.3271 18.5742 12.6097 18.5234 12.9014 18.4922C13.2529 18.4557 13.5381 18.4232 13.7568 18.3945C13.9756 18.3633 14.1344 18.3164 14.2334 18.2539C14.335 18.1888 14.3857 18.0885 14.3857 17.9531V17.9297C14.3857 17.6354 14.2985 17.4076 14.124 17.2461C13.9495 17.0846 13.6982 17.0039 13.3701 17.0039C13.0238 17.0039 12.749 17.0794 12.5459 17.2305C12.3454 17.3815 12.21 17.5599 12.1396 17.7656L10.8193 17.5781C10.9235 17.2135 11.0954 16.9089 11.335 16.6641C11.5745 16.4167 11.8675 16.2318 12.2139 16.1094C12.5602 15.9844 12.943 15.9219 13.3623 15.9219C13.6514 15.9219 13.9391 15.9557 14.2256 16.0234C14.512 16.0911 14.7738 16.2031 15.0107 16.3594C15.2477 16.513 15.4378 16.7227 15.5811 16.9883C15.7269 17.2539 15.7998 17.5859 15.7998 17.9844V22H14.4404V21.1758H14.3936C14.3076 21.3424 14.1865 21.4987 14.0303 21.6445C13.8766 21.7878 13.6826 21.9036 13.4482 21.9922C13.2165 22.0781 12.9443 22.1211 12.6318 22.1211ZM12.999 21.082C13.2829 21.082 13.529 21.026 13.7373 20.9141C13.9456 20.7995 14.1058 20.6484 14.2178 20.4609C14.3324 20.2734 14.3896 20.069 14.3896 19.8477V19.1406C14.3454 19.1771 14.2699 19.2109 14.1631 19.2422C14.0589 19.2734 13.9417 19.3008 13.8115 19.3242C13.6813 19.3477 13.5524 19.3685 13.4248 19.3867C13.2972 19.4049 13.1865 19.4206 13.0928 19.4336C12.8818 19.4622 12.693 19.5091 12.5264 19.5742C12.3597 19.6393 12.2282 19.7305 12.1318 19.8477C12.0355 19.9622 11.9873 20.1107 11.9873 20.293C11.9873 20.5534 12.0824 20.75 12.2725 20.8828C12.4626 21.0156 12.7048 21.082 12.999 21.082ZM18.6357 18.4844V22H17.2217V16H18.5732V17.0195H18.6436C18.7816 16.6836 19.0016 16.4167 19.3037 16.2187C19.6084 16.0208 19.9847 15.9219 20.4326 15.9219C20.8467 15.9219 21.2074 16.0104 21.5146 16.1875C21.8245 16.3646 22.0641 16.6211 22.2334 16.957C22.4053 17.293 22.4899 17.7005 22.4873 18.1797V22H21.0732V18.3984C21.0732 17.9974 20.9691 17.6836 20.7607 17.457C20.555 17.2305 20.2699 17.1172 19.9053 17.1172C19.6579 17.1172 19.4378 17.1719 19.2451 17.2812C19.055 17.388 18.9053 17.543 18.7959 17.7461C18.6891 17.9492 18.6357 18.1953 18.6357 18.4844ZM25.3389 18.4844V22H23.9248V14H25.3076V17.0195H25.3779C25.5186 16.681 25.736 16.4141 26.0303 16.2187C26.3271 16.0208 26.7048 15.9219 27.1631 15.9219C27.5798 15.9219 27.943 16.0091 28.2529 16.1836C28.5628 16.3581 28.8024 16.6133 28.9717 16.9492C29.1436 17.2852 29.2295 17.6953 29.2295 18.1797V22H27.8154V18.3984C27.8154 17.9948 27.7113 17.681 27.5029 17.457C27.2972 17.2305 27.0081 17.1172 26.6357 17.1172C26.3857 17.1172 26.1618 17.1719 25.9639 17.2812C25.7686 17.388 25.6149 17.543 25.5029 17.7461C25.3936 17.9492 25.3389 18.1953 25.3389 18.4844Z" fill="white"/>
</svg>
