<svg width="500" height="500" viewBox="0 0 500 500" fill="none" xmlns="http://www.w3.org/2000/svg">
<rect width="500" height="500" fill="white"/>
<circle cx="250" cy="86" r="35" fill="#D9D9D9"/>
<rect x="215" y="148" width="70" height="198" fill="#D9D9D9"/>
<path d="M250.707 345.293C250.317 344.902 249.683 344.902 249.293 345.293L242.929 351.657C242.538 352.047 242.538 352.681 242.929 353.071C243.319 353.462 243.953 353.462 244.343 353.071L250 347.414L255.657 353.071C256.047 353.462 256.681 353.462 257.071 353.071C257.462 352.681 257.462 352.047 257.071 351.657L250.707 345.293ZM251 372L251 346L249 346L249 372L251 372Z" fill="black"/>
<path d="M250.707 121.293C250.317 120.902 249.683 120.902 249.293 121.293L242.929 127.657C242.538 128.047 242.538 128.681 242.929 129.071C243.319 129.462 243.953 129.462 244.343 129.071L250 123.414L255.657 129.071C256.047 129.462 256.681 129.462 257.071 129.071C257.462 128.681 257.462 128.047 257.071 127.657L250.707 121.293ZM251 148L251 122L249 122L249 148L251 148Z" fill="black"/>
<path d="M242.614 77.5455H245.034L249.875 85.6932H250.08L254.92 77.5455H257.341L251.034 87.8068V95H248.92V87.8068L242.614 77.5455Z" fill="black"/>
<path d="M261.278 93.0909V94.5114H255.625V93.0909H261.278ZM257.273 90.4773H258.949V100.875C258.949 101.348 259.018 101.704 259.155 101.94C259.297 102.172 259.477 102.329 259.695 102.409C259.917 102.485 260.152 102.523 260.398 102.523C260.582 102.523 260.734 102.513 260.852 102.494C260.971 102.471 261.065 102.452 261.136 102.438L261.477 103.943C261.364 103.986 261.205 104.028 261.001 104.071C260.798 104.118 260.54 104.142 260.227 104.142C259.754 104.142 259.29 104.04 258.835 103.837C258.385 103.633 258.011 103.323 257.713 102.906C257.42 102.49 257.273 101.964 257.273 101.33V90.4773Z" fill="black"/>
<circle cx="250" cy="407" r="35" fill="#D9D9D9"/>
<path d="M245.136 398.545L249.636 405.807H249.773L254.273 398.545H256.761L251.273 407.273L256.761 416H254.273L249.773 408.875H249.636L245.136 416H242.648L248.273 407.273L242.648 398.545H245.136Z" fill="black"/>
<path d="M263.278 414.091V415.511H257.625V414.091H263.278ZM259.273 411.477H260.949V421.875C260.949 422.348 261.018 422.704 261.155 422.94C261.297 423.172 261.477 423.329 261.695 423.409C261.917 423.485 262.152 423.523 262.398 423.523C262.582 423.523 262.734 423.513 262.852 423.494C262.971 423.471 263.065 423.452 263.136 423.438L263.477 424.943C263.364 424.986 263.205 425.028 263.001 425.071C262.798 425.118 262.54 425.142 262.227 425.142C261.754 425.142 261.29 425.04 260.835 424.837C260.385 424.633 260.011 424.323 259.713 423.906C259.42 423.49 259.273 422.964 259.273 422.33V411.477Z" fill="black"/>
<path d="M122.936 74.7273C122.936 76.2614 122.659 77.5871 122.105 78.7045C121.551 79.822 120.792 80.6837 119.826 81.2898C118.86 81.8958 117.757 82.1989 116.516 82.1989C115.275 82.1989 114.172 81.8958 113.206 81.2898C112.24 80.6837 111.48 79.822 110.926 78.7045C110.373 77.5871 110.096 76.2614 110.096 74.7273C110.096 73.1932 110.373 71.8674 110.926 70.75C111.48 69.6326 112.24 68.7708 113.206 68.1648C114.172 67.5587 115.275 67.2557 116.516 67.2557C117.757 67.2557 118.86 67.5587 119.826 68.1648C120.792 68.7708 121.551 69.6326 122.105 70.75C122.659 71.8674 122.936 73.1932 122.936 74.7273ZM121.232 74.7273C121.232 73.4678 121.021 72.4048 120.6 71.5384C120.183 70.6719 119.617 70.0161 118.902 69.571C118.192 69.1259 117.397 68.9034 116.516 68.9034C115.635 68.9034 114.837 69.1259 114.123 69.571C113.412 70.0161 112.846 70.6719 112.425 71.5384C112.008 72.4048 111.8 73.4678 111.8 74.7273C111.8 75.9867 112.008 77.0497 112.425 77.9162C112.846 78.7827 113.412 79.4384 114.123 79.8835C114.837 80.3286 115.635 80.5511 116.516 80.5511C117.397 80.5511 118.192 80.3286 118.902 79.8835C119.617 79.4384 120.183 78.7827 120.6 77.9162C121.021 77.0497 121.232 75.9867 121.232 74.7273ZM132.546 77.5398V71.0909H134.222V82H132.546V80.1534H132.432C132.176 80.7074 131.779 81.1785 131.239 81.5668C130.699 81.9503 130.017 82.142 129.194 82.142C128.512 82.142 127.906 81.9929 127.375 81.6946C126.845 81.3916 126.428 80.937 126.125 80.331C125.822 79.7202 125.671 78.9508 125.671 78.0227V71.0909H127.347V77.9091C127.347 78.7045 127.569 79.339 128.015 79.8125C128.464 80.286 129.037 80.5227 129.733 80.5227C130.15 80.5227 130.574 80.4162 131.005 80.2031C131.44 79.9901 131.805 79.6634 132.098 79.223C132.397 78.7827 132.546 78.2216 132.546 77.5398ZM142.036 71.0909V72.5114H136.383V71.0909H142.036ZM138.031 68.4773H139.707V78.875C139.707 79.3485 139.775 79.7036 139.913 79.9403C140.055 80.1723 140.235 80.3286 140.452 80.4091C140.675 80.4848 140.909 80.5227 141.156 80.5227C141.34 80.5227 141.492 80.5133 141.61 80.4943C141.728 80.4706 141.823 80.4517 141.894 80.4375L142.235 81.9432C142.121 81.9858 141.963 82.0284 141.759 82.071C141.556 82.1184 141.298 82.142 140.985 82.142C140.512 82.142 140.048 82.0402 139.593 81.8366C139.143 81.633 138.769 81.3229 138.471 80.9062C138.177 80.4896 138.031 79.964 138.031 79.3295V68.4773ZM144.558 86.0909V71.0909H146.177V72.8239H146.376C146.499 72.6345 146.669 72.393 146.887 72.0994C147.11 71.8011 147.427 71.536 147.839 71.304C148.255 71.0672 148.819 70.9489 149.529 70.9489C150.448 70.9489 151.257 71.1785 151.958 71.6378C152.659 72.0971 153.206 72.7481 153.599 73.5909C153.992 74.4337 154.188 75.428 154.188 76.5739C154.188 77.7292 153.992 78.7306 153.599 79.5781C153.206 80.4209 152.661 81.0743 151.965 81.5384C151.269 81.9976 150.467 82.2273 149.558 82.2273C148.857 82.2273 148.296 82.1113 147.874 81.8793C147.453 81.6425 147.129 81.375 146.901 81.0767C146.674 80.7737 146.499 80.5227 146.376 80.3239H146.234V86.0909H144.558ZM146.205 76.5455C146.205 77.3693 146.326 78.0961 146.567 78.7259C146.809 79.3509 147.162 79.8409 147.626 80.196C148.09 80.5464 148.658 80.7216 149.33 80.7216C150.031 80.7216 150.616 80.5369 151.085 80.1676C151.558 79.7936 151.913 79.2917 152.15 78.6619C152.391 78.0275 152.512 77.322 152.512 76.5455C152.512 75.7784 152.394 75.0871 152.157 74.4716C151.925 73.8513 151.572 73.3613 151.099 73.0014C150.63 72.6368 150.04 72.4545 149.33 72.4545C148.648 72.4545 148.076 72.6274 147.612 72.973C147.147 73.3139 146.797 73.7921 146.56 74.4077C146.324 75.0185 146.205 75.7311 146.205 76.5455ZM163.62 77.5398V71.0909H165.296V82H163.62V80.1534H163.506C163.251 80.7074 162.853 81.1785 162.313 81.5668C161.773 81.9503 161.092 82.142 160.268 82.142C159.586 82.142 158.98 81.9929 158.45 81.6946C157.919 81.3916 157.503 80.937 157.2 80.331C156.897 79.7202 156.745 78.9508 156.745 78.0227V71.0909H158.421V77.9091C158.421 78.7045 158.644 79.339 159.089 79.8125C159.539 80.286 160.112 80.5227 160.808 80.5227C161.224 80.5227 161.648 80.4162 162.079 80.2031C162.514 79.9901 162.879 79.6634 163.173 79.223C163.471 78.7827 163.62 78.2216 163.62 77.5398ZM173.11 71.0909V72.5114H167.457V71.0909H173.11ZM169.105 68.4773H170.781V78.875C170.781 79.3485 170.85 79.7036 170.987 79.9403C171.129 80.1723 171.309 80.3286 171.527 80.4091C171.749 80.4848 171.984 80.5227 172.23 80.5227C172.414 80.5227 172.566 80.5133 172.684 80.4943C172.803 80.4706 172.897 80.4517 172.968 80.4375L173.309 81.9432C173.196 81.9858 173.037 82.0284 172.833 82.071C172.63 82.1184 172.372 82.142 172.059 82.142C171.586 82.142 171.122 82.0402 170.667 81.8366C170.217 81.633 169.843 81.3229 169.545 80.9062C169.252 80.4896 169.105 79.964 169.105 79.3295V68.4773ZM117.285 106V91.4545H119.046V104.438H125.808V106H117.285ZM131.518 106.256C130.826 106.256 130.199 106.125 129.636 105.865C129.072 105.6 128.625 105.219 128.293 104.722C127.962 104.22 127.796 103.614 127.796 102.903C127.796 102.278 127.919 101.772 128.165 101.384C128.412 100.991 128.741 100.683 129.153 100.46C129.565 100.238 130.019 100.072 130.516 99.9631C131.018 99.8494 131.522 99.7595 132.029 99.6932C132.692 99.608 133.229 99.544 133.641 99.5014C134.058 99.4541 134.361 99.3759 134.55 99.267C134.745 99.1581 134.842 98.9687 134.842 98.6989V98.642C134.842 97.9413 134.65 97.3968 134.266 97.0085C133.888 96.6203 133.312 96.4261 132.54 96.4261C131.74 96.4261 131.113 96.6013 130.658 96.9517C130.204 97.3021 129.884 97.6761 129.7 98.0739L128.109 97.5057C128.393 96.8428 128.772 96.3267 129.245 95.9574C129.723 95.5833 130.244 95.3229 130.808 95.1761C131.376 95.0246 131.934 94.9489 132.484 94.9489C132.834 94.9489 133.237 94.9915 133.691 95.0767C134.15 95.1572 134.593 95.3253 135.019 95.581C135.45 95.8366 135.808 96.2225 136.092 96.7386C136.376 97.2547 136.518 97.946 136.518 98.8125V106H134.842V104.523H134.756C134.643 104.759 134.453 105.013 134.188 105.283C133.923 105.553 133.57 105.782 133.13 105.972C132.69 106.161 132.152 106.256 131.518 106.256ZM131.773 104.75C132.436 104.75 132.995 104.62 133.45 104.359C133.909 104.099 134.254 103.763 134.487 103.351C134.723 102.939 134.842 102.506 134.842 102.051V100.517C134.771 100.602 134.614 100.68 134.373 100.751C134.136 100.818 133.862 100.877 133.549 100.929C133.241 100.976 132.941 101.019 132.647 101.057C132.358 101.09 132.124 101.118 131.944 101.142C131.508 101.199 131.101 101.291 130.722 101.419C130.348 101.542 130.045 101.729 129.813 101.98C129.586 102.226 129.472 102.562 129.472 102.989C129.472 103.571 129.688 104.011 130.119 104.31C130.554 104.603 131.106 104.75 131.773 104.75ZM140.266 110.091C139.982 110.091 139.729 110.067 139.506 110.02C139.283 109.977 139.13 109.935 139.044 109.892L139.471 108.415C139.878 108.519 140.238 108.557 140.55 108.528C140.863 108.5 141.14 108.36 141.381 108.109C141.627 107.863 141.852 107.463 142.056 106.909L142.368 106.057L138.334 95.0909H140.152L143.164 103.784H143.277L146.289 95.0909H148.107L143.476 107.591C143.268 108.154 143.01 108.621 142.702 108.99C142.394 109.364 142.037 109.641 141.63 109.821C141.227 110.001 140.773 110.091 140.266 110.091ZM154.502 106.227C153.451 106.227 152.545 105.995 151.782 105.531C151.025 105.062 150.44 104.409 150.028 103.571C149.621 102.728 149.417 101.748 149.417 100.631C149.417 99.5133 149.621 98.5284 150.028 97.6761C150.44 96.8191 151.013 96.1515 151.747 95.6733C152.485 95.1903 153.347 94.9489 154.332 94.9489C154.9 94.9489 155.461 95.0436 156.015 95.233C156.569 95.4223 157.074 95.7301 157.528 96.1562C157.983 96.5777 158.345 97.1364 158.615 97.8324C158.885 98.5284 159.02 99.3854 159.02 100.403V101.114H150.61V99.6648H157.315C157.315 99.0492 157.192 98.5 156.946 98.017C156.704 97.5341 156.359 97.1529 155.909 96.8736C155.464 96.5942 154.938 96.4545 154.332 96.4545C153.664 96.4545 153.087 96.6203 152.599 96.9517C152.116 97.2784 151.744 97.7045 151.484 98.2301C151.224 98.7557 151.093 99.3191 151.093 99.9205V100.886C151.093 101.71 151.235 102.409 151.52 102.982C151.808 103.55 152.208 103.983 152.72 104.281C153.231 104.575 153.825 104.722 154.502 104.722C154.943 104.722 155.341 104.66 155.696 104.537C156.056 104.409 156.366 104.22 156.626 103.969C156.886 103.713 157.088 103.396 157.23 103.017L158.849 103.472C158.679 104.021 158.392 104.504 157.99 104.92C157.587 105.332 157.09 105.654 156.498 105.886C155.906 106.114 155.241 106.227 154.502 106.227ZM161.569 106V95.0909H163.189V96.7386H163.302C163.501 96.1989 163.861 95.7609 164.382 95.4247C164.903 95.0885 165.49 94.9205 166.143 94.9205C166.266 94.9205 166.42 94.9228 166.605 94.9276C166.789 94.9323 166.929 94.9394 167.024 94.9489V96.6534C166.967 96.6392 166.837 96.6179 166.633 96.5895C166.434 96.5563 166.224 96.5398 166.001 96.5398C165.471 96.5398 164.997 96.651 164.581 96.8736C164.169 97.0914 163.842 97.3944 163.6 97.7827C163.364 98.1662 163.245 98.6042 163.245 99.0966V106H161.569Z" fill="black"/>
<path d="M120.99 392.455V407H119.228V392.455H120.99ZM125.97 400.438V407H124.294V396.091H125.913V397.795H126.055C126.311 397.241 126.699 396.796 127.22 396.46C127.741 396.119 128.413 395.949 129.237 395.949C129.976 395.949 130.622 396.1 131.176 396.403C131.73 396.702 132.161 397.156 132.469 397.767C132.776 398.373 132.93 399.14 132.93 400.068V407H131.254V400.182C131.254 399.325 131.032 398.657 130.586 398.179C130.141 397.696 129.531 397.455 128.754 397.455C128.219 397.455 127.741 397.571 127.319 397.803C126.903 398.035 126.574 398.373 126.332 398.818C126.091 399.263 125.97 399.803 125.97 400.438ZM135.993 411.091V396.091H137.612V397.824H137.811C137.934 397.634 138.105 397.393 138.323 397.099C138.545 396.801 138.862 396.536 139.274 396.304C139.691 396.067 140.254 395.949 140.965 395.949C141.883 395.949 142.693 396.179 143.394 396.638C144.094 397.097 144.641 397.748 145.034 398.591C145.427 399.434 145.624 400.428 145.624 401.574C145.624 402.729 145.427 403.731 145.034 404.578C144.641 405.421 144.097 406.074 143.401 406.538C142.705 406.998 141.902 407.227 140.993 407.227C140.292 407.227 139.731 407.111 139.31 406.879C138.888 406.643 138.564 406.375 138.337 406.077C138.11 405.774 137.934 405.523 137.811 405.324H137.669V411.091H135.993ZM137.641 401.545C137.641 402.369 137.762 403.096 138.003 403.726C138.244 404.351 138.597 404.841 139.061 405.196C139.525 405.546 140.093 405.722 140.766 405.722C141.467 405.722 142.051 405.537 142.52 405.168C142.994 404.794 143.349 404.292 143.585 403.662C143.827 403.027 143.948 402.322 143.948 401.545C143.948 400.778 143.829 400.087 143.593 399.472C143.36 398.851 143.008 398.361 142.534 398.001C142.066 397.637 141.476 397.455 140.766 397.455C140.084 397.455 139.511 397.627 139.047 397.973C138.583 398.314 138.233 398.792 137.996 399.408C137.759 400.018 137.641 400.731 137.641 401.545ZM155.056 402.54V396.091H156.732V407H155.056V405.153H154.942C154.686 405.707 154.289 406.179 153.749 406.567C153.209 406.95 152.527 407.142 151.703 407.142C151.021 407.142 150.415 406.993 149.885 406.695C149.355 406.392 148.938 405.937 148.635 405.331C148.332 404.72 148.181 403.951 148.181 403.023V396.091H149.857V402.909C149.857 403.705 150.079 404.339 150.524 404.812C150.974 405.286 151.547 405.523 152.243 405.523C152.66 405.523 153.084 405.416 153.514 405.203C153.95 404.99 154.315 404.663 154.608 404.223C154.906 403.783 155.056 403.222 155.056 402.54ZM164.546 396.091V397.511H158.893V396.091H164.546ZM160.54 393.477H162.216V403.875C162.216 404.348 162.285 404.704 162.422 404.94C162.564 405.172 162.744 405.329 162.962 405.409C163.185 405.485 163.419 405.523 163.665 405.523C163.85 405.523 164.001 405.513 164.12 405.494C164.238 405.471 164.333 405.452 164.404 405.438L164.745 406.943C164.631 406.986 164.473 407.028 164.269 407.071C164.065 407.118 163.807 407.142 163.495 407.142C163.021 407.142 162.557 407.04 162.103 406.837C161.653 406.633 161.279 406.323 160.981 405.906C160.687 405.49 160.54 404.964 160.54 404.33V393.477ZM117.285 431V416.455H119.046V429.438H125.808V431H117.285ZM131.518 431.256C130.826 431.256 130.199 431.125 129.636 430.865C129.072 430.6 128.625 430.219 128.293 429.722C127.962 429.22 127.796 428.614 127.796 427.903C127.796 427.278 127.919 426.772 128.165 426.384C128.412 425.991 128.741 425.683 129.153 425.46C129.565 425.238 130.019 425.072 130.516 424.963C131.018 424.849 131.522 424.759 132.029 424.693C132.692 424.608 133.229 424.544 133.641 424.501C134.058 424.454 134.361 424.376 134.55 424.267C134.745 424.158 134.842 423.969 134.842 423.699V423.642C134.842 422.941 134.65 422.397 134.266 422.009C133.888 421.62 133.312 421.426 132.54 421.426C131.74 421.426 131.113 421.601 130.658 421.952C130.204 422.302 129.884 422.676 129.7 423.074L128.109 422.506C128.393 421.843 128.772 421.327 129.245 420.957C129.723 420.583 130.244 420.323 130.808 420.176C131.376 420.025 131.934 419.949 132.484 419.949C132.834 419.949 133.237 419.991 133.691 420.077C134.15 420.157 134.593 420.325 135.019 420.581C135.45 420.837 135.808 421.223 136.092 421.739C136.376 422.255 136.518 422.946 136.518 423.812V431H134.842V429.523H134.756C134.643 429.759 134.453 430.013 134.188 430.283C133.923 430.553 133.57 430.782 133.13 430.972C132.69 431.161 132.152 431.256 131.518 431.256ZM131.773 429.75C132.436 429.75 132.995 429.62 133.45 429.359C133.909 429.099 134.254 428.763 134.487 428.351C134.723 427.939 134.842 427.506 134.842 427.051V425.517C134.771 425.602 134.614 425.68 134.373 425.751C134.136 425.818 133.862 425.877 133.549 425.929C133.241 425.976 132.941 426.019 132.647 426.057C132.358 426.09 132.124 426.118 131.944 426.142C131.508 426.199 131.101 426.291 130.722 426.419C130.348 426.542 130.045 426.729 129.813 426.98C129.586 427.226 129.472 427.562 129.472 427.989C129.472 428.571 129.688 429.011 130.119 429.31C130.554 429.603 131.106 429.75 131.773 429.75ZM140.266 435.091C139.982 435.091 139.729 435.067 139.506 435.02C139.283 434.977 139.13 434.935 139.044 434.892L139.471 433.415C139.878 433.519 140.238 433.557 140.55 433.528C140.863 433.5 141.14 433.36 141.381 433.109C141.627 432.863 141.852 432.463 142.056 431.909L142.368 431.057L138.334 420.091H140.152L143.164 428.784H143.277L146.289 420.091H148.107L143.476 432.591C143.268 433.154 143.01 433.621 142.702 433.99C142.394 434.364 142.037 434.641 141.63 434.821C141.227 435.001 140.773 435.091 140.266 435.091ZM154.502 431.227C153.451 431.227 152.545 430.995 151.782 430.531C151.025 430.062 150.44 429.409 150.028 428.571C149.621 427.728 149.417 426.748 149.417 425.631C149.417 424.513 149.621 423.528 150.028 422.676C150.44 421.819 151.013 421.152 151.747 420.673C152.485 420.19 153.347 419.949 154.332 419.949C154.9 419.949 155.461 420.044 156.015 420.233C156.569 420.422 157.074 420.73 157.528 421.156C157.983 421.578 158.345 422.136 158.615 422.832C158.885 423.528 159.02 424.385 159.02 425.403V426.114H150.61V424.665H157.315C157.315 424.049 157.192 423.5 156.946 423.017C156.704 422.534 156.359 422.153 155.909 421.874C155.464 421.594 154.938 421.455 154.332 421.455C153.664 421.455 153.087 421.62 152.599 421.952C152.116 422.278 151.744 422.705 151.484 423.23C151.224 423.756 151.093 424.319 151.093 424.92V425.886C151.093 426.71 151.235 427.409 151.52 427.982C151.808 428.55 152.208 428.983 152.72 429.281C153.231 429.575 153.825 429.722 154.502 429.722C154.943 429.722 155.341 429.66 155.696 429.537C156.056 429.409 156.366 429.22 156.626 428.969C156.886 428.713 157.088 428.396 157.23 428.017L158.849 428.472C158.679 429.021 158.392 429.504 157.99 429.92C157.587 430.332 157.09 430.654 156.498 430.886C155.906 431.114 155.241 431.227 154.502 431.227ZM161.569 431V420.091H163.189V421.739H163.302C163.501 421.199 163.861 420.761 164.382 420.425C164.903 420.089 165.49 419.92 166.143 419.92C166.266 419.92 166.42 419.923 166.605 419.928C166.789 419.932 166.929 419.939 167.024 419.949V421.653C166.967 421.639 166.837 421.618 166.633 421.589C166.434 421.556 166.224 421.54 166.001 421.54C165.471 421.54 164.997 421.651 164.581 421.874C164.169 422.091 163.842 422.394 163.6 422.783C163.364 423.166 163.245 423.604 163.245 424.097V431H161.569Z" fill="black"/>
<path d="M109.394 244V229.455H111.156V235.932H118.911V229.455H120.673V244H118.911V237.494H111.156V244H109.394ZM123.972 244V233.091H125.648V244H123.972ZM124.824 231.273C124.497 231.273 124.215 231.161 123.979 230.939C123.747 230.716 123.631 230.449 123.631 230.136C123.631 229.824 123.747 229.556 123.979 229.334C124.215 229.111 124.497 229 124.824 229C125.151 229 125.43 229.111 125.662 229.334C125.899 229.556 126.017 229.824 126.017 230.136C126.017 230.449 125.899 230.716 125.662 230.939C125.43 231.161 125.151 231.273 124.824 231.273ZM132.837 244.227C131.928 244.227 131.125 243.998 130.429 243.538C129.733 243.074 129.189 242.421 128.796 241.578C128.403 240.731 128.206 239.729 128.206 238.574C128.206 237.428 128.403 236.434 128.796 235.591C129.189 234.748 129.736 234.097 130.436 233.638C131.137 233.179 131.947 232.949 132.865 232.949C133.576 232.949 134.137 233.067 134.549 233.304C134.965 233.536 135.283 233.801 135.5 234.099C135.723 234.393 135.896 234.634 136.019 234.824H136.161V229.455H137.837V244H136.218V242.324H136.019C135.896 242.523 135.721 242.774 135.493 243.077C135.266 243.375 134.942 243.643 134.52 243.879C134.099 244.111 133.538 244.227 132.837 244.227ZM133.064 242.722C133.737 242.722 134.305 242.546 134.769 242.196C135.233 241.841 135.586 241.351 135.827 240.726C136.069 240.096 136.189 239.369 136.189 238.545C136.189 237.731 136.071 237.018 135.834 236.408C135.597 235.792 135.247 235.314 134.783 234.973C134.319 234.627 133.746 234.455 133.064 234.455C132.354 234.455 131.762 234.637 131.289 235.001C130.82 235.361 130.467 235.851 130.23 236.472C129.998 237.087 129.882 237.778 129.882 238.545C129.882 239.322 130.001 240.027 130.238 240.662C130.479 241.292 130.834 241.794 131.303 242.168C131.776 242.537 132.364 242.722 133.064 242.722ZM145.259 244.227C144.35 244.227 143.547 243.998 142.851 243.538C142.155 243.074 141.611 242.421 141.218 241.578C140.825 240.731 140.628 239.729 140.628 238.574C140.628 237.428 140.825 236.434 141.218 235.591C141.611 234.748 142.158 234.097 142.858 233.638C143.559 233.179 144.369 232.949 145.287 232.949C145.998 232.949 146.559 233.067 146.971 233.304C147.387 233.536 147.704 233.801 147.922 234.099C148.145 234.393 148.318 234.634 148.441 234.824H148.583V229.455H150.259V244H148.64V242.324H148.441C148.318 242.523 148.142 242.774 147.915 243.077C147.688 243.375 147.364 243.643 146.942 243.879C146.521 244.111 145.96 244.227 145.259 244.227ZM145.486 242.722C146.158 242.722 146.727 242.546 147.191 242.196C147.655 241.841 148.007 241.351 148.249 240.726C148.49 240.096 148.611 239.369 148.611 238.545C148.611 237.731 148.493 237.018 148.256 236.408C148.019 235.792 147.669 235.314 147.205 234.973C146.741 234.627 146.168 234.455 145.486 234.455C144.776 234.455 144.184 234.637 143.711 235.001C143.242 235.361 142.889 235.851 142.652 236.472C142.42 237.087 142.304 237.778 142.304 238.545C142.304 239.322 142.423 240.027 142.659 240.662C142.901 241.292 143.256 241.794 143.725 242.168C144.198 242.537 144.785 242.722 145.486 242.722ZM158.135 244.227C157.084 244.227 156.177 243.995 155.415 243.531C154.658 243.062 154.073 242.409 153.661 241.571C153.254 240.728 153.05 239.748 153.05 238.631C153.05 237.513 153.254 236.528 153.661 235.676C154.073 234.819 154.646 234.152 155.38 233.673C156.118 233.19 156.98 232.949 157.965 232.949C158.533 232.949 159.094 233.044 159.648 233.233C160.202 233.422 160.706 233.73 161.161 234.156C161.615 234.578 161.978 235.136 162.248 235.832C162.517 236.528 162.652 237.385 162.652 238.403V239.114H154.243V237.665H160.948C160.948 237.049 160.825 236.5 160.578 236.017C160.337 235.534 159.991 235.153 159.542 234.874C159.096 234.594 158.571 234.455 157.965 234.455C157.297 234.455 156.72 234.62 156.232 234.952C155.749 235.278 155.377 235.705 155.117 236.23C154.856 236.756 154.726 237.319 154.726 237.92V238.886C154.726 239.71 154.868 240.409 155.152 240.982C155.441 241.55 155.841 241.983 156.353 242.281C156.864 242.575 157.458 242.722 158.135 242.722C158.576 242.722 158.973 242.66 159.328 242.537C159.688 242.409 159.998 242.22 160.259 241.969C160.519 241.713 160.721 241.396 160.863 241.017L162.482 241.472C162.311 242.021 162.025 242.504 161.623 242.92C161.22 243.332 160.723 243.654 160.131 243.886C159.539 244.114 158.874 244.227 158.135 244.227ZM166.878 237.438V244H165.202V233.091H166.821V234.795H166.963C167.219 234.241 167.607 233.796 168.128 233.46C168.649 233.119 169.321 232.949 170.145 232.949C170.884 232.949 171.53 233.1 172.084 233.403C172.638 233.702 173.069 234.156 173.377 234.767C173.685 235.373 173.838 236.14 173.838 237.068V244H172.162V237.182C172.162 236.325 171.94 235.657 171.495 235.179C171.05 234.696 170.439 234.455 169.662 234.455C169.127 234.455 168.649 234.571 168.228 234.803C167.811 235.035 167.482 235.373 167.24 235.818C166.999 236.263 166.878 236.803 166.878 237.438ZM117.285 268V253.455H119.046V266.438H125.808V268H117.285ZM131.518 268.256C130.826 268.256 130.199 268.125 129.636 267.865C129.072 267.6 128.625 267.219 128.293 266.722C127.962 266.22 127.796 265.614 127.796 264.903C127.796 264.278 127.919 263.772 128.165 263.384C128.412 262.991 128.741 262.683 129.153 262.46C129.565 262.238 130.019 262.072 130.516 261.963C131.018 261.849 131.522 261.759 132.029 261.693C132.692 261.608 133.229 261.544 133.641 261.501C134.058 261.454 134.361 261.376 134.55 261.267C134.745 261.158 134.842 260.969 134.842 260.699V260.642C134.842 259.941 134.65 259.397 134.266 259.009C133.888 258.62 133.312 258.426 132.54 258.426C131.74 258.426 131.113 258.601 130.658 258.952C130.204 259.302 129.884 259.676 129.7 260.074L128.109 259.506C128.393 258.843 128.772 258.327 129.245 257.957C129.723 257.583 130.244 257.323 130.808 257.176C131.376 257.025 131.934 256.949 132.484 256.949C132.834 256.949 133.237 256.991 133.691 257.077C134.15 257.157 134.593 257.325 135.019 257.581C135.45 257.837 135.808 258.223 136.092 258.739C136.376 259.255 136.518 259.946 136.518 260.812V268H134.842V266.523H134.756C134.643 266.759 134.453 267.013 134.188 267.283C133.923 267.553 133.57 267.782 133.13 267.972C132.69 268.161 132.152 268.256 131.518 268.256ZM131.773 266.75C132.436 266.75 132.995 266.62 133.45 266.359C133.909 266.099 134.254 265.763 134.487 265.351C134.723 264.939 134.842 264.506 134.842 264.051V262.517C134.771 262.602 134.614 262.68 134.373 262.751C134.136 262.818 133.862 262.877 133.549 262.929C133.241 262.976 132.941 263.019 132.647 263.057C132.358 263.09 132.124 263.118 131.944 263.142C131.508 263.199 131.101 263.291 130.722 263.419C130.348 263.542 130.045 263.729 129.813 263.98C129.586 264.226 129.472 264.562 129.472 264.989C129.472 265.571 129.688 266.011 130.119 266.31C130.554 266.603 131.106 266.75 131.773 266.75ZM140.266 272.091C139.982 272.091 139.729 272.067 139.506 272.02C139.283 271.977 139.13 271.935 139.044 271.892L139.471 270.415C139.878 270.519 140.238 270.557 140.55 270.528C140.863 270.5 141.14 270.36 141.381 270.109C141.627 269.863 141.852 269.463 142.056 268.909L142.368 268.057L138.334 257.091H140.152L143.164 265.784H143.277L146.289 257.091H148.107L143.476 269.591C143.268 270.154 143.01 270.621 142.702 270.99C142.394 271.364 142.037 271.641 141.63 271.821C141.227 272.001 140.773 272.091 140.266 272.091ZM154.502 268.227C153.451 268.227 152.545 267.995 151.782 267.531C151.025 267.062 150.44 266.409 150.028 265.571C149.621 264.728 149.417 263.748 149.417 262.631C149.417 261.513 149.621 260.528 150.028 259.676C150.44 258.819 151.013 258.152 151.747 257.673C152.485 257.19 153.347 256.949 154.332 256.949C154.9 256.949 155.461 257.044 156.015 257.233C156.569 257.422 157.074 257.73 157.528 258.156C157.983 258.578 158.345 259.136 158.615 259.832C158.885 260.528 159.02 261.385 159.02 262.403V263.114H150.61V261.665H157.315C157.315 261.049 157.192 260.5 156.946 260.017C156.704 259.534 156.359 259.153 155.909 258.874C155.464 258.594 154.938 258.455 154.332 258.455C153.664 258.455 153.087 258.62 152.599 258.952C152.116 259.278 151.744 259.705 151.484 260.23C151.224 260.756 151.093 261.319 151.093 261.92V262.886C151.093 263.71 151.235 264.409 151.52 264.982C151.808 265.55 152.208 265.983 152.72 266.281C153.231 266.575 153.825 266.722 154.502 266.722C154.943 266.722 155.341 266.66 155.696 266.537C156.056 266.409 156.366 266.22 156.626 265.969C156.886 265.713 157.088 265.396 157.23 265.017L158.849 265.472C158.679 266.021 158.392 266.504 157.99 266.92C157.587 267.332 157.09 267.654 156.498 267.886C155.906 268.114 155.241 268.227 154.502 268.227ZM161.569 268V257.091H163.189V258.739H163.302C163.501 258.199 163.861 257.761 164.382 257.425C164.903 257.089 165.49 256.92 166.143 256.92C166.266 256.92 166.42 256.923 166.605 256.928C166.789 256.932 166.929 256.939 167.024 256.949V258.653C166.967 258.639 166.837 258.618 166.633 258.589C166.434 258.556 166.224 258.54 166.001 258.54C165.471 258.54 164.997 258.651 164.581 258.874C164.169 259.091 163.842 259.394 163.6 259.783C163.364 260.166 163.245 260.604 163.245 261.097V268H161.569Z" fill="black"/>
</svg>
