<svg width="804" height="688" viewBox="0 0 804 688" fill="none" xmlns="http://www.w3.org/2000/svg">
<rect x="4" width="800" height="688" fill="white"/>
<rect x="104" y="62" width="611" height="394" rx="48" fill="#D9D9D9"/>
<path d="M301.808 188V173.455H307.263C308.38 173.455 309.318 173.649 310.075 174.037C310.838 174.425 311.413 174.97 311.801 175.67C312.194 176.366 312.391 177.179 312.391 178.107C312.391 179.039 312.192 179.849 311.794 180.536C311.401 181.217 310.821 181.745 310.054 182.119C309.287 182.489 308.345 182.673 307.227 182.673H303.342V180.486H306.872C307.526 180.486 308.061 180.396 308.477 180.216C308.894 180.031 309.202 179.764 309.401 179.413C309.604 179.058 309.706 178.623 309.706 178.107C309.706 177.59 309.604 177.15 309.401 176.786C309.197 176.416 308.887 176.137 308.47 175.947C308.053 175.753 307.516 175.656 306.858 175.656H304.443V188H301.808ZM309.322 181.409L312.923 188H309.983L306.446 181.409H309.322Z" fill="black"/>
<path d="M317.088 188.545L316.95 189.398H313.97L314.109 188.545H317.088ZM315.121 187.239H316.182L315.323 192.398C315.29 192.604 315.296 192.759 315.341 192.864C315.386 192.965 315.455 193.035 315.547 193.073C315.642 193.109 315.747 193.126 315.863 193.126C315.948 193.126 316.023 193.121 316.087 193.109C316.151 193.097 316.201 193.087 316.239 193.08L316.296 193.957C316.225 193.981 316.129 194.005 316.008 194.028C315.89 194.054 315.746 194.069 315.575 194.071C315.296 194.076 315.044 194.026 314.819 193.922C314.594 193.815 314.426 193.654 314.315 193.439C314.203 193.221 314.176 192.948 314.233 192.619L315.121 187.239Z" fill="black"/>
<path d="M422.538 188V186.359L429.996 175.663H422.496V173.455H433.263V175.095L425.812 185.791H433.305V188H422.538Z" fill="black"/>
<path d="M438.088 188.545L437.95 189.398H434.97L435.109 188.545H438.088ZM436.121 187.239H437.182L436.323 192.398C436.29 192.604 436.296 192.759 436.341 192.864C436.386 192.965 436.455 193.035 436.547 193.073C436.642 193.109 436.747 193.126 436.863 193.126C436.948 193.126 437.023 193.121 437.087 193.109C437.151 193.097 437.201 193.087 437.239 193.08L437.296 193.957C437.225 193.981 437.129 194.005 437.008 194.028C436.89 194.054 436.746 194.069 436.575 194.071C436.296 194.076 436.044 194.026 435.819 193.922C435.594 193.815 435.426 193.654 435.315 193.439C435.203 193.221 435.176 192.948 435.233 192.619L436.121 187.239Z" fill="black"/>
<path d="M143.874 128L143.874 129.5L143.874 128ZM161.874 146L163.374 146L161.874 146ZM161.874 350L160.374 350L160.374 350L161.874 350ZM179.874 368L179.874 366.5L179.874 366.5L179.874 368ZM290.874 368L290.874 369.5L290.874 368ZM308.874 350L310.374 350L308.874 350ZM309.934 294.439C309.348 293.854 308.399 293.854 307.813 294.439L298.267 303.985C297.681 304.571 297.681 305.521 298.267 306.107C298.853 306.692 299.802 306.692 300.388 306.107L308.874 297.621L317.359 306.107C317.945 306.692 318.894 306.692 319.48 306.107C320.066 305.521 320.066 304.571 319.48 303.985L309.934 294.439ZM62.3737 129.5L143.874 129.5L143.874 126.5L62.3737 126.5L62.3737 129.5ZM160.374 146L160.374 350L163.374 350L163.374 146L160.374 146ZM179.874 369.5L290.874 369.5L290.874 366.5L179.874 366.5L179.874 369.5ZM310.374 350L310.374 295.5L307.374 295.5L307.374 350L310.374 350ZM290.874 369.5C301.643 369.5 310.374 360.77 310.374 350L307.374 350C307.374 359.113 299.986 366.5 290.874 366.5L290.874 369.5ZM160.374 350C160.374 360.77 169.104 369.5 179.874 369.5L179.874 366.5C170.761 366.5 163.374 359.113 163.374 350L160.374 350ZM143.874 129.5C152.986 129.5 160.374 136.887 160.374 146L163.374 146C163.374 135.23 154.643 126.5 143.874 126.5L143.874 129.5Z" fill="black"/>
<path d="M161.374 386.5L162.874 386.5L161.374 386.5ZM179.374 368.5L179.374 370L179.374 368.5ZM411.374 368.5L411.374 367L411.374 368.5ZM429.374 350.5L430.874 350.5L429.374 350.5ZM430.435 295.439C429.849 294.854 428.899 294.854 428.313 295.439L418.767 304.985C418.182 305.571 418.182 306.521 418.767 307.107C419.353 307.692 420.303 307.692 420.889 307.107L429.374 298.621L437.859 307.107C438.445 307.692 439.395 307.692 439.981 307.107C440.566 306.521 440.566 305.571 439.981 304.985L430.435 295.439ZM162.874 522.5L162.874 386.5L159.874 386.5L159.874 522.5L162.874 522.5ZM179.374 370L411.374 370L411.374 367L179.374 367L179.374 370ZM430.874 350.5L430.874 296.5L427.874 296.5L427.874 350.5L430.874 350.5ZM411.374 370C422.143 370 430.874 361.27 430.874 350.5L427.874 350.5C427.874 359.613 420.487 367 411.374 367L411.374 370ZM162.874 386.5C162.874 377.387 170.261 370 179.374 370L179.374 367C168.604 367 159.874 375.73 159.874 386.5L162.874 386.5Z" fill="black"/>
<path d="M429.434 200.939C428.848 200.354 427.899 200.354 427.313 200.939L417.767 210.485C417.181 211.071 417.181 212.021 417.767 212.607C418.353 213.192 419.302 213.192 419.888 212.607L428.374 204.121L436.859 212.607C437.445 213.192 438.394 213.192 438.98 212.607C439.566 212.021 439.566 211.071 438.98 210.485L429.434 200.939ZM429.874 262V202H426.874V262H429.874Z" fill="black"/>
<path d="M309.434 200.939C308.848 200.354 307.899 200.354 307.313 200.939L297.767 210.485C297.181 211.071 297.181 212.021 297.767 212.607C298.353 213.192 299.302 213.192 299.888 212.607L308.374 204.121L316.859 212.607C317.445 213.192 318.394 213.192 318.98 212.607C319.566 212.021 319.566 211.071 318.98 210.485L309.434 200.939ZM309.874 262V202H306.874V262H309.874Z" fill="black"/>
<circle cx="308.874" cy="271.5" r="22.5" fill="#DA6939"/>
<path d="M303.805 271.795V271.523C303.805 270.352 304.035 269.298 304.496 268.361C304.956 267.423 305.621 266.682 306.49 266.136C307.359 265.591 308.408 265.318 309.635 265.318C309.862 265.369 310.072 265.489 310.266 265.676C310.464 265.858 310.695 266.06 310.956 266.281C311.217 266.497 311.558 266.682 311.979 266.835C312.649 267.097 313.243 267.477 313.76 267.977C314.283 268.477 314.692 269.074 314.987 269.767C315.283 270.455 315.43 271.21 315.43 272.034V272.273C315.43 273.33 315.203 274.312 314.749 275.222C314.3 276.125 313.646 276.855 312.788 277.412C311.93 277.963 310.891 278.239 309.669 278.239C308.43 278.239 307.374 277.955 306.499 277.386C305.629 276.818 304.962 276.048 304.496 275.077C304.035 274.105 303.805 273.011 303.805 271.795ZM306.575 271.523V271.795C306.575 272.562 306.678 273.267 306.882 273.909C307.092 274.551 307.425 275.068 307.879 275.46C308.334 275.847 308.93 276.04 309.669 276.04C310.379 276.04 310.953 275.847 311.391 275.46C311.834 275.068 312.155 274.551 312.354 273.909C312.558 273.267 312.66 272.562 312.66 271.795V271.523C312.66 270.807 312.558 270.145 312.354 269.537C312.155 268.929 311.831 268.44 311.382 268.071C310.939 267.702 310.356 267.517 309.635 267.517C308.913 267.517 308.328 267.702 307.879 268.071C307.43 268.44 307.101 268.929 306.891 269.537C306.68 270.145 306.575 270.807 306.575 271.523ZM316.402 265.318V267.517H309.635V265.318H316.402Z" fill="white"/>
<circle cx="428.874" cy="271.5" r="22.5" fill="#DA6939"/>
<path d="M423.805 271.795V271.523C423.805 270.352 424.035 269.298 424.496 268.361C424.956 267.423 425.621 266.682 426.49 266.136C427.359 265.591 428.408 265.318 429.635 265.318C429.862 265.369 430.072 265.489 430.266 265.676C430.464 265.858 430.695 266.06 430.956 266.281C431.217 266.497 431.558 266.682 431.979 266.835C432.649 267.097 433.243 267.477 433.76 267.977C434.283 268.477 434.692 269.074 434.987 269.767C435.283 270.455 435.43 271.21 435.43 272.034V272.273C435.43 273.33 435.203 274.312 434.749 275.222C434.3 276.125 433.646 276.855 432.788 277.412C431.93 277.963 430.891 278.239 429.669 278.239C428.43 278.239 427.374 277.955 426.499 277.386C425.629 276.818 424.962 276.048 424.496 275.077C424.035 274.105 423.805 273.011 423.805 271.795ZM426.575 271.523V271.795C426.575 272.562 426.678 273.267 426.882 273.909C427.092 274.551 427.425 275.068 427.879 275.46C428.334 275.847 428.93 276.04 429.669 276.04C430.379 276.04 430.953 275.847 431.391 275.46C431.834 275.068 432.155 274.551 432.354 273.909C432.558 273.267 432.66 272.562 432.66 271.795V271.523C432.66 270.807 432.558 270.145 432.354 269.537C432.155 268.929 431.831 268.44 431.382 268.071C430.939 267.702 430.356 267.517 429.635 267.517C428.913 267.517 428.328 267.702 427.879 268.071C427.43 268.44 427.101 268.929 426.891 269.537C426.68 270.145 426.575 270.807 426.575 271.523ZM436.402 265.318V267.517H429.635V265.318H436.402Z" fill="white"/>
<path d="M69.8082 117V102.455H72.4431V108.612H79.1832V102.455H81.8252V117H79.1832V110.821H72.4431V117H69.8082Z" fill="black"/>
<path d="M87.088 117.545L86.9495 118.398H83.9701L84.1086 117.545H87.088ZM85.1207 116.239H86.1825L85.3231 121.398C85.29 121.604 85.2959 121.759 85.3409 121.864C85.3858 121.965 85.4545 122.035 85.5468 122.073C85.6415 122.109 85.7469 122.126 85.8629 122.126C85.9481 122.126 86.0227 122.121 86.0866 122.109C86.1505 122.097 86.2014 122.087 86.2393 122.08L86.2961 122.957C86.2251 122.981 86.1292 123.005 86.0085 123.028C85.8901 123.054 85.7457 123.069 85.5752 123.071C85.2959 123.076 85.0438 123.026 84.8188 122.922C84.5939 122.815 84.4259 122.654 84.3146 122.439C84.2033 122.221 84.1761 121.948 84.2329 121.619L85.1207 116.239ZM90.9712 119.467L90.8185 120.386H87.5905L87.7432 119.467H90.9712ZM95.7492 115.727L94.5419 123H93.441L94.4637 116.828H94.4211L92.4929 117.964L92.6704 116.913L94.6804 115.727H95.7492Z" fill="black"/>
<path d="M143.01 496.455L146.213 501.781H146.327L149.544 496.455H152.548L148.067 503.727L152.619 511H149.565L146.327 505.709H146.213L142.974 511H139.935L144.53 503.727L139.991 496.455H143.01Z" fill="black"/>
<path d="M156.088 511.545L155.95 512.398H152.97L153.109 511.545H156.088ZM154.121 510.239H155.182L154.323 515.398C154.29 515.604 154.296 515.759 154.341 515.864C154.386 515.965 154.455 516.035 154.547 516.073C154.642 516.109 154.747 516.126 154.863 516.126C154.948 516.126 155.023 516.121 155.087 516.109C155.151 516.097 155.201 516.087 155.239 516.08L155.296 516.957C155.225 516.981 155.129 517.005 155.008 517.028C154.89 517.054 154.746 517.069 154.575 517.071C154.296 517.076 154.044 517.026 153.819 516.922C153.594 516.815 153.426 516.654 153.315 516.439C153.203 516.221 153.176 515.948 153.233 515.619L154.121 510.239Z" fill="black"/>
<path d="M277.646 125L280.544 107.545H286.442C287.805 107.545 288.885 107.776 289.68 108.236C290.481 108.696 291.024 109.33 291.308 110.136C291.598 110.943 291.658 111.864 291.487 112.898C291.317 113.92 290.953 114.83 290.396 115.625C289.845 116.42 289.095 117.045 288.146 117.5C287.203 117.955 286.055 118.182 284.703 118.182H279.93L280.271 116.273H284.976C285.908 116.273 286.68 116.136 287.294 115.864C287.908 115.591 288.385 115.202 288.726 114.696C289.067 114.19 289.294 113.591 289.408 112.898C289.521 112.193 289.49 111.582 289.314 111.065C289.143 110.543 288.794 110.139 288.266 109.855C287.743 109.565 287.01 109.42 286.067 109.42H282.351L279.76 125H277.646ZM287.158 117.159L290.158 125H287.703L284.771 117.159H287.158ZM298.039 125.273C296.783 125.273 295.746 124.994 294.928 124.438C294.11 123.875 293.539 123.091 293.215 122.085C292.891 121.074 292.84 119.898 293.062 118.557C293.283 117.216 293.724 116.034 294.383 115.011C295.042 113.983 295.863 113.182 296.846 112.608C297.829 112.028 298.908 111.739 300.084 111.739C300.766 111.739 301.423 111.852 302.053 112.08C302.684 112.307 303.229 112.676 303.69 113.188C304.15 113.693 304.471 114.364 304.653 115.199C304.834 116.034 304.823 117.062 304.619 118.284L304.482 119.136H294.391L294.664 117.398H302.709C302.84 116.659 302.806 116 302.607 115.42C302.414 114.841 302.076 114.384 301.593 114.048C301.116 113.713 300.511 113.545 299.778 113.545C299.022 113.545 298.317 113.75 297.664 114.159C297.011 114.562 296.465 115.074 296.028 115.693C295.59 116.307 295.317 116.932 295.209 117.568L294.971 119.068C294.8 120.153 294.826 121.017 295.048 121.659C295.275 122.301 295.67 122.764 296.232 123.048C296.795 123.327 297.499 123.466 298.346 123.466C298.886 123.466 299.383 123.392 299.837 123.244C300.292 123.091 300.698 122.864 301.056 122.562C301.414 122.256 301.715 121.875 301.959 121.42L303.8 121.966C303.488 122.625 303.048 123.205 302.479 123.705C301.917 124.199 301.258 124.585 300.502 124.864C299.752 125.136 298.931 125.273 298.039 125.273ZM317.577 114.841L315.668 115.352C315.6 115.045 315.481 114.75 315.31 114.466C315.146 114.176 314.89 113.94 314.543 113.759C314.202 113.571 313.736 113.477 313.146 113.477C312.344 113.477 311.648 113.662 311.057 114.031C310.467 114.395 310.129 114.858 310.043 115.42C309.958 115.915 310.072 116.31 310.384 116.605C310.697 116.901 311.219 117.142 311.952 117.33L313.827 117.807C314.952 118.097 315.754 118.531 316.231 119.111C316.714 119.685 316.879 120.432 316.725 121.352C316.6 122.102 316.273 122.773 315.745 123.364C315.217 123.955 314.54 124.42 313.717 124.761C312.893 125.102 311.975 125.273 310.964 125.273C309.617 125.273 308.555 124.983 307.776 124.403C306.998 123.818 306.583 122.972 306.532 121.864L308.543 121.386C308.594 122.085 308.844 122.614 309.293 122.972C309.748 123.324 310.384 123.5 311.202 123.5C312.14 123.5 312.921 123.301 313.546 122.903C314.171 122.5 314.526 122.017 314.611 121.455C314.697 120.994 314.606 120.611 314.339 120.304C314.077 119.997 313.623 119.767 312.975 119.614L310.896 119.102C309.736 118.812 308.924 118.369 308.458 117.773C307.998 117.176 307.844 116.426 307.998 115.523C308.123 114.784 308.441 114.131 308.952 113.562C309.469 112.994 310.117 112.548 310.896 112.224C311.68 111.901 312.532 111.739 313.452 111.739C314.748 111.739 315.717 112.023 316.359 112.591C317.001 113.153 317.407 113.903 317.577 114.841ZM324.594 125.273C323.338 125.273 322.301 124.994 321.483 124.438C320.665 123.875 320.094 123.091 319.77 122.085C319.446 121.074 319.395 119.898 319.616 118.557C319.838 117.216 320.278 116.034 320.937 115.011C321.597 113.983 322.418 113.182 323.401 112.608C324.383 112.028 325.463 111.739 326.639 111.739C327.321 111.739 327.977 111.852 328.608 112.08C329.239 112.307 329.784 112.676 330.244 113.188C330.705 113.693 331.026 114.364 331.207 115.199C331.389 116.034 331.378 117.062 331.173 118.284L331.037 119.136H320.946L321.219 117.398H329.264C329.395 116.659 329.361 116 329.162 115.42C328.969 114.841 328.631 114.384 328.148 114.048C327.67 113.713 327.065 113.545 326.332 113.545C325.577 113.545 324.872 113.75 324.219 114.159C323.565 114.562 323.02 115.074 322.582 115.693C322.145 116.307 321.872 116.932 321.764 117.568L321.526 119.068C321.355 120.153 321.381 121.017 321.602 121.659C321.83 122.301 322.224 122.764 322.787 123.048C323.349 123.327 324.054 123.466 324.901 123.466C325.44 123.466 325.937 123.392 326.392 123.244C326.847 123.091 327.253 122.864 327.611 122.562C327.969 122.256 328.27 121.875 328.514 121.42L330.355 121.966C330.043 122.625 329.602 123.205 329.034 123.705C328.472 124.199 327.812 124.585 327.057 124.864C326.307 125.136 325.486 125.273 324.594 125.273ZM341.03 111.909L340.757 113.614H333.973L334.246 111.909H341.03ZM336.734 108.773H338.746L336.666 121.25C336.575 121.818 336.589 122.244 336.709 122.528C336.834 122.807 337.021 122.994 337.271 123.091C337.527 123.182 337.803 123.227 338.098 123.227C338.32 123.227 338.501 123.216 338.643 123.193C338.785 123.165 338.899 123.142 338.984 123.125L339.121 124.932C338.967 124.983 338.76 125.034 338.499 125.085C338.243 125.142 337.928 125.17 337.553 125.17C336.984 125.17 336.45 125.048 335.95 124.804C335.45 124.56 335.067 124.188 334.8 123.688C334.533 123.188 334.462 122.557 334.587 121.795L336.734 108.773ZM288.718 159.182C287.741 159.182 286.923 159.057 286.264 158.807C285.605 158.562 285.076 158.239 284.679 157.835C284.281 157.438 283.98 157.011 283.775 156.557L285.582 155.432C285.718 155.67 285.894 155.943 286.11 156.25C286.326 156.562 286.653 156.832 287.091 157.06C287.534 157.293 288.156 157.409 288.957 157.409C290.008 157.409 290.929 157.153 291.718 156.642C292.508 156.131 292.997 155.33 293.184 154.239L293.593 151.58H293.423C293.241 151.818 292.988 152.114 292.664 152.466C292.341 152.812 291.906 153.122 291.36 153.395C290.815 153.662 290.116 153.795 289.264 153.795C288.201 153.795 287.292 153.545 286.537 153.045C285.781 152.545 285.238 151.818 284.909 150.864C284.585 149.909 284.537 148.75 284.764 147.386C284.985 146.045 285.412 144.878 286.042 143.884C286.679 142.884 287.463 142.111 288.394 141.565C289.326 141.014 290.343 140.739 291.446 140.739C292.298 140.739 292.951 140.881 293.406 141.165C293.866 141.443 294.201 141.761 294.412 142.119C294.622 142.472 294.781 142.761 294.889 142.989H295.093L295.434 140.909H297.377L295.162 154.375C294.974 155.5 294.568 156.415 293.943 157.119C293.318 157.83 292.551 158.349 291.642 158.679C290.733 159.014 289.758 159.182 288.718 159.182ZM289.775 151.989C290.576 151.989 291.289 151.804 291.914 151.435C292.545 151.065 293.068 150.534 293.483 149.841C293.897 149.148 294.184 148.318 294.343 147.352C294.502 146.409 294.491 145.577 294.309 144.855C294.127 144.134 293.784 143.568 293.278 143.159C292.778 142.75 292.122 142.545 291.309 142.545C290.451 142.545 289.71 142.761 289.085 143.193C288.466 143.625 287.963 144.205 287.576 144.932C287.19 145.659 286.923 146.466 286.775 147.352C286.627 148.261 286.633 149.065 286.792 149.764C286.951 150.457 287.275 151.003 287.764 151.401C288.258 151.793 288.929 151.989 289.775 151.989ZM302.696 154.307C301.866 154.307 301.139 154.151 300.514 153.838C299.889 153.52 299.426 153.062 299.125 152.466C298.823 151.864 298.741 151.136 298.877 150.284C299.008 149.534 299.261 148.926 299.636 148.46C300.011 147.989 300.466 147.619 301 147.352C301.539 147.08 302.119 146.878 302.738 146.747C303.363 146.611 303.985 146.506 304.605 146.432C305.412 146.33 306.068 146.25 306.573 146.193C307.079 146.136 307.46 146.043 307.716 145.912C307.971 145.781 308.127 145.557 308.184 145.239V145.17C308.321 144.335 308.21 143.685 307.852 143.219C307.494 142.747 306.855 142.511 305.934 142.511C304.98 142.511 304.181 142.722 303.539 143.142C302.897 143.562 302.423 144.011 302.116 144.489L300.343 143.807C300.809 143.011 301.366 142.392 302.014 141.949C302.662 141.5 303.341 141.187 304.051 141.011C304.761 140.83 305.446 140.739 306.105 140.739C306.525 140.739 307 140.79 307.528 140.892C308.056 140.989 308.551 141.19 309.011 141.497C309.477 141.804 309.826 142.267 310.059 142.886C310.298 143.506 310.332 144.335 310.162 145.375L308.73 154H306.718L307.025 152.227H306.923C306.741 152.511 306.463 152.815 306.088 153.139C305.718 153.463 305.25 153.739 304.681 153.966C304.119 154.193 303.457 154.307 302.696 154.307ZM303.275 152.5C304.071 152.5 304.767 152.344 305.363 152.031C305.966 151.719 306.448 151.315 306.812 150.821C307.181 150.327 307.412 149.807 307.502 149.261L307.809 147.42C307.707 147.523 307.505 147.616 307.204 147.702C306.903 147.781 306.562 147.852 306.181 147.915C305.806 147.972 305.44 148.023 305.082 148.068C304.73 148.108 304.446 148.142 304.23 148.17C303.696 148.239 303.187 148.349 302.704 148.503C302.227 148.651 301.823 148.875 301.494 149.176C301.17 149.472 300.968 149.875 300.889 150.386C300.769 151.085 300.937 151.614 301.392 151.972C301.846 152.324 302.474 152.5 303.275 152.5ZM320.276 140.909L320.003 142.614H313.219L313.492 140.909H320.276ZM315.98 137.773H317.992L315.912 150.25C315.821 150.818 315.836 151.244 315.955 151.528C316.08 151.807 316.267 151.994 316.517 152.091C316.773 152.182 317.049 152.227 317.344 152.227C317.566 152.227 317.747 152.216 317.89 152.193C318.032 152.165 318.145 152.142 318.23 152.125L318.367 153.932C318.213 153.983 318.006 154.034 317.745 154.085C317.489 154.142 317.174 154.17 316.799 154.17C316.23 154.17 315.696 154.048 315.196 153.804C314.696 153.56 314.313 153.188 314.046 152.688C313.779 152.188 313.708 151.557 313.833 150.795L315.98 137.773ZM326.434 154.273C325.178 154.273 324.141 153.994 323.323 153.438C322.505 152.875 321.934 152.091 321.61 151.085C321.286 150.074 321.235 148.898 321.456 147.557C321.678 146.216 322.118 145.034 322.777 144.011C323.436 142.983 324.257 142.182 325.24 141.608C326.223 141.028 327.303 140.739 328.479 140.739C329.161 140.739 329.817 140.852 330.448 141.08C331.078 141.307 331.624 141.676 332.084 142.188C332.544 142.693 332.865 143.364 333.047 144.199C333.229 145.034 333.218 146.062 333.013 147.284L332.877 148.136H322.786L323.059 146.398H331.104C331.235 145.659 331.201 145 331.002 144.42C330.809 143.841 330.47 143.384 329.988 143.048C329.51 142.713 328.905 142.545 328.172 142.545C327.417 142.545 326.712 142.75 326.059 143.159C325.405 143.562 324.86 144.074 324.422 144.693C323.985 145.307 323.712 145.932 323.604 146.568L323.365 148.068C323.195 149.153 323.22 150.017 323.442 150.659C323.669 151.301 324.064 151.764 324.627 152.048C325.189 152.327 325.894 152.466 326.74 152.466C327.28 152.466 327.777 152.392 328.232 152.244C328.686 152.091 329.093 151.864 329.451 151.562C329.809 151.256 330.11 150.875 330.354 150.42L332.195 150.966C331.882 151.625 331.442 152.205 330.874 152.705C330.311 153.199 329.652 153.585 328.897 153.864C328.147 154.136 327.326 154.273 326.434 154.273Z" fill="black"/>
<path d="M20.7322 56L23.6299 38.5455H25.7436L24.4481 46.3182H33.7549L35.0504 38.5455H37.164L34.2663 56H32.1527L33.4481 48.1932H24.1413L22.8458 56H20.7322ZM38.2251 56L40.4069 42.9091H42.4183L40.2365 56H38.2251ZM42.0262 40.6932C41.6342 40.6932 41.2961 40.5597 41.012 40.2926C40.7336 40.0256 40.5944 39.7045 40.5944 39.3295C40.5944 38.9545 40.7336 38.6335 41.012 38.3665C41.2961 38.0994 41.6342 37.9659 42.0262 37.9659C42.4183 37.9659 42.7535 38.0994 43.0319 38.3665C43.316 38.6335 43.4581 38.9545 43.4581 39.3295C43.4581 39.7045 43.316 40.0256 43.0319 40.2926C42.7535 40.5597 42.4183 40.6932 42.0262 40.6932ZM48.8465 56.2727C47.75 56.2727 46.8295 55.9972 46.0852 55.446C45.3409 54.8892 44.8153 54.1051 44.5085 53.0938C44.2073 52.0767 44.1704 50.875 44.3977 49.4886C44.6306 48.1136 45.0653 46.9205 45.7017 45.9091C46.3437 44.8977 47.1306 44.1165 48.0625 43.5653C48.9943 43.0142 50.0113 42.7386 51.1136 42.7386C51.9659 42.7386 52.6164 42.8807 53.0653 43.1648C53.5198 43.4432 53.8494 43.7614 54.0539 44.1193C54.2585 44.4716 54.4147 44.7614 54.5227 44.9886H54.6931L55.767 38.5455H57.7784L54.8806 56H52.9375L53.2784 53.9886H53.0397C52.8522 54.2273 52.5909 54.5284 52.2556 54.892C51.9204 55.25 51.4772 55.571 50.9261 55.8551C50.3806 56.1335 49.6875 56.2727 48.8465 56.2727ZM49.3409 54.4659C50.1477 54.4659 50.8693 54.2557 51.5056 53.8352C52.1477 53.4091 52.6818 52.821 53.1079 52.071C53.534 51.3153 53.8295 50.4432 53.9943 49.4545C54.159 48.4773 54.1534 47.6222 53.9772 46.8892C53.8011 46.1506 53.463 45.5767 52.963 45.1676C52.463 44.7528 51.8011 44.5455 50.9772 44.5455C50.1306 44.5455 49.3948 44.7642 48.7698 45.2017C48.1448 45.6335 47.6363 46.2216 47.2443 46.9659C46.8522 47.7045 46.5795 48.5341 46.4261 49.4545C46.2727 50.3864 46.2698 51.233 46.4176 51.9943C46.5653 52.75 46.8778 53.3523 47.3551 53.8011C47.838 54.2443 48.5 54.4659 49.3409 54.4659ZM63.7528 56.2727C62.6562 56.2727 61.7358 55.9972 60.9914 55.446C60.2471 54.8892 59.7215 54.1051 59.4147 53.0938C59.1136 52.0767 59.0767 50.875 59.3039 49.4886C59.5369 48.1136 59.9715 46.9205 60.6079 45.9091C61.25 44.8977 62.0369 44.1165 62.9687 43.5653C63.9005 43.0142 64.9176 42.7386 66.0198 42.7386C66.8721 42.7386 67.5227 42.8807 67.9715 43.1648C68.4261 43.4432 68.7556 43.7614 68.9602 44.1193C69.1647 44.4716 69.321 44.7614 69.4289 44.9886H69.5994L70.6733 38.5455H72.6846L69.7869 56H67.8437L68.1846 53.9886H67.946C67.7585 54.2273 67.4971 54.5284 67.1619 54.892C66.8267 55.25 66.3835 55.571 65.8323 55.8551C65.2869 56.1335 64.5937 56.2727 63.7528 56.2727ZM64.2471 54.4659C65.0539 54.4659 65.7755 54.2557 66.4119 53.8352C67.0539 53.4091 67.588 52.821 68.0142 52.071C68.4403 51.3153 68.7358 50.4432 68.9005 49.4545C69.0653 48.4773 69.0596 47.6222 68.8835 46.8892C68.7073 46.1506 68.3693 45.5767 67.8693 45.1676C67.3693 44.7528 66.7073 44.5455 65.8835 44.5455C65.0369 44.5455 64.3011 44.7642 63.6761 45.2017C63.0511 45.6335 62.5426 46.2216 62.1505 46.9659C61.7585 47.7045 61.4858 48.5341 61.3323 49.4545C61.1789 50.3864 61.1761 51.233 61.3238 51.9943C61.4715 52.75 61.784 53.3523 62.2613 53.8011C62.7443 54.2443 63.4062 54.4659 64.2471 54.4659ZM79.1875 56.2727C77.9318 56.2727 76.8948 55.9943 76.0767 55.4375C75.2585 54.875 74.6875 54.0909 74.3636 53.0852C74.0397 52.0739 73.9886 50.8977 74.2102 49.5568C74.4318 48.2159 74.8721 47.0341 75.5312 46.0114C76.1903 44.983 77.0113 44.1818 77.9943 43.608C78.9772 43.0284 80.0568 42.7386 81.2329 42.7386C81.9147 42.7386 82.571 42.8523 83.2017 43.0795C83.8323 43.3068 84.3778 43.6761 84.838 44.1875C85.2983 44.6932 85.6193 45.3636 85.8011 46.1989C85.9829 47.0341 85.9715 48.0625 85.767 49.2841L85.6306 50.1364H75.5397L75.8125 48.3977H83.8579C83.9886 47.6591 83.9545 47 83.7556 46.4205C83.5625 45.8409 83.2244 45.3835 82.7414 45.0483C82.2642 44.7131 81.659 44.5455 80.9261 44.5455C80.1704 44.5455 79.4659 44.75 78.8125 45.1591C78.159 45.5625 77.6136 46.0739 77.1761 46.6932C76.7386 47.3068 76.4659 47.9318 76.3579 48.5682L76.1193 50.0682C75.9488 51.1534 75.9744 52.017 76.196 52.6591C76.4233 53.3011 76.8181 53.7642 77.3806 54.0483C77.9431 54.3267 78.6477 54.4659 79.4943 54.4659C80.034 54.4659 80.5312 54.392 80.9858 54.2443C81.4403 54.0909 81.8465 53.8636 82.2045 53.5625C82.5625 53.2557 82.8636 52.875 83.1079 52.4205L84.9488 52.9659C84.6363 53.625 84.196 54.2045 83.6278 54.7045C83.0653 55.1989 82.4062 55.5852 81.6505 55.8636C80.9005 56.1364 80.0795 56.2727 79.1875 56.2727ZM91.0554 48.125L89.7599 56H87.7485L89.9304 42.9091H91.8735L91.5326 44.9545H91.7031C92.1122 44.2898 92.6661 43.7557 93.365 43.3523C94.0639 42.9432 94.9076 42.7386 95.8963 42.7386C96.7713 42.7386 97.5099 42.9205 98.1122 43.2841C98.7201 43.642 99.1491 44.1875 99.3991 44.9205C99.6548 45.6477 99.6917 46.5682 99.5099 47.6818L98.1122 56H96.1008L97.4644 47.8182C97.6349 46.7955 97.5014 45.9943 97.0639 45.4148C96.6321 44.8352 95.9474 44.5455 95.0099 44.5455C94.3622 44.5455 93.7627 44.6847 93.2116 44.9631C92.6661 45.2415 92.2031 45.6477 91.8224 46.1818C91.4474 46.7159 91.1917 47.3636 91.0554 48.125ZM43.4133 74.8409L41.5042 75.3523C41.436 75.0455 41.3167 74.75 41.1463 74.4659C40.9815 74.1761 40.7258 73.9403 40.3792 73.7585C40.0383 73.571 39.5724 73.4773 38.9815 73.4773C38.1804 73.4773 37.4843 73.6619 36.8934 74.0312C36.3025 74.3949 35.9644 74.858 35.8792 75.4205C35.794 75.9148 35.9076 76.3097 36.2201 76.6051C36.5326 76.9006 37.0554 77.142 37.7883 77.3295L39.6633 77.8068C40.7883 78.0966 41.5894 78.5312 42.0667 79.1108C42.5497 79.6847 42.7144 80.4318 42.561 81.3523C42.436 82.1023 42.1093 82.7727 41.5809 83.3636C41.0525 83.9545 40.3764 84.4205 39.5525 84.7614C38.7286 85.1023 37.811 85.2727 36.7997 85.2727C35.4531 85.2727 34.3906 84.983 33.6122 84.4034C32.8338 83.8182 32.419 82.9716 32.3679 81.8636L34.3792 81.3864C34.4304 82.0852 34.6804 82.6136 35.1292 82.9716C35.5838 83.3239 36.2201 83.5 37.0383 83.5C37.9758 83.5 38.7571 83.3011 39.3821 82.9034C40.0071 82.5 40.3622 82.017 40.4474 81.4545C40.5326 80.9943 40.4417 80.6108 40.1747 80.304C39.9133 79.9972 39.4588 79.767 38.811 79.6136L36.7315 79.1023C35.5724 78.8125 34.7599 78.3693 34.294 77.7727C33.8338 77.1761 33.6804 76.4261 33.8338 75.5227C33.9588 74.7841 34.2769 74.1307 34.7883 73.5625C35.3054 72.9943 35.9531 72.5483 36.7315 72.2244C37.5156 71.9006 38.3679 71.7386 39.2883 71.7386C40.5838 71.7386 41.5525 72.0227 42.1946 72.5909C42.8366 73.1534 43.2429 73.9034 43.4133 74.8409ZM52.8501 71.9091L52.5774 73.6136H45.7933L46.066 71.9091H52.8501ZM48.5546 68.7727H50.566L48.4865 81.25C48.3956 81.8182 48.4098 82.2443 48.5291 82.5284C48.6541 82.8068 48.8416 82.9943 49.0916 83.0909C49.3473 83.1818 49.6228 83.2273 49.9183 83.2273C50.1399 83.2273 50.3217 83.2159 50.4637 83.1932C50.6058 83.1648 50.7194 83.142 50.8046 83.125L50.941 84.9318C50.7876 84.983 50.5802 85.0341 50.3188 85.0852C50.0632 85.142 49.7478 85.1705 49.3728 85.1705C48.8046 85.1705 48.2706 85.0483 47.7706 84.804C47.2706 84.5597 46.887 84.1875 46.62 83.6875C46.3529 83.1875 46.2819 82.5568 46.4069 81.7955L48.5546 68.7727ZM57.512 85.3068C56.6825 85.3068 55.9552 85.1506 55.3302 84.8381C54.7052 84.5199 54.2421 84.0625 53.941 83.4659C53.6399 82.8636 53.5575 82.1364 53.6938 81.2841C53.8245 80.5341 54.0774 79.9261 54.4524 79.4602C54.8274 78.9886 55.2819 78.6193 55.816 78.3523C56.3558 78.0795 56.9353 77.8778 57.5546 77.7472C58.1796 77.6108 58.8018 77.5057 59.4211 77.4318C60.2279 77.3295 60.8842 77.25 61.3899 77.1932C61.8956 77.1364 62.2762 77.0426 62.5319 76.9119C62.7876 76.7812 62.9438 76.5568 63.0007 76.2386V76.1705C63.137 75.3352 63.0262 74.6847 62.6683 74.2188C62.3103 73.7472 61.6711 73.5114 60.7507 73.5114C59.7961 73.5114 58.9978 73.7216 58.3558 74.142C57.7137 74.5625 57.2393 75.0114 56.9325 75.4886L55.1598 74.8068C55.6257 74.0114 56.1825 73.392 56.8302 72.9489C57.4779 72.5 58.1569 72.1875 58.8671 72.0114C59.5774 71.8295 60.262 71.7386 60.9211 71.7386C61.3416 71.7386 61.816 71.7898 62.3444 71.892C62.8728 71.9886 63.3671 72.1903 63.8274 72.4972C64.2933 72.804 64.6427 73.267 64.8757 73.8864C65.1143 74.5057 65.1484 75.3352 64.9779 76.375L63.5461 85H61.5348L61.8416 83.2273H61.7393C61.5575 83.5114 61.2791 83.8153 60.9041 84.1392C60.5348 84.4631 60.066 84.7386 59.4978 84.9659C58.9353 85.1932 58.2734 85.3068 57.512 85.3068ZM58.0916 83.5C58.887 83.5 59.5831 83.3438 60.1796 83.0312C60.7819 82.7188 61.2649 82.3153 61.6285 81.821C61.9978 81.3267 62.2279 80.8068 62.3188 80.2614L62.6257 78.4205C62.5234 78.5227 62.3217 78.6165 62.0206 78.7017C61.7194 78.7812 61.3785 78.8523 60.9978 78.9148C60.6228 78.9716 60.2563 79.0227 59.8984 79.0682C59.5461 79.108 59.262 79.142 59.0461 79.1705C58.512 79.2386 58.0035 79.3494 57.5206 79.5028C57.0433 79.6506 56.6399 79.875 56.3103 80.1761C55.9865 80.4716 55.7848 80.875 55.7052 81.3864C55.5859 82.0852 55.7535 82.6136 56.2081 82.9716C56.6626 83.3239 57.2904 83.5 58.0916 83.5ZM75.0923 71.9091L74.8196 73.6136H68.0355L68.3082 71.9091H75.0923ZM70.7968 68.7727H72.8082L70.7286 81.25C70.6377 81.8182 70.6519 82.2443 70.7713 82.5284C70.8963 82.8068 71.0838 82.9943 71.3338 83.0909C71.5894 83.1818 71.865 83.2273 72.1605 83.2273C72.3821 83.2273 72.5639 83.2159 72.7059 83.1932C72.848 83.1648 72.9616 83.142 73.0468 83.125L73.1832 84.9318C73.0298 84.983 72.8224 85.0341 72.561 85.0852C72.3054 85.142 71.99 85.1705 71.615 85.1705C71.0468 85.1705 70.5127 85.0483 70.0127 84.804C69.5127 84.5597 69.1292 84.1875 68.8622 83.6875C68.5951 83.1875 68.5241 82.5568 68.6491 81.7955L70.7968 68.7727ZM81.25 85.2727C79.9943 85.2727 78.9573 84.9943 78.1392 84.4375C77.321 83.875 76.75 83.0909 76.4261 82.0852C76.1022 81.0739 76.0511 79.8977 76.2727 78.5568C76.4943 77.2159 76.9346 76.0341 77.5937 75.0114C78.2528 73.983 79.0738 73.1818 80.0568 72.608C81.0397 72.0284 82.1193 71.7386 83.2954 71.7386C83.9772 71.7386 84.6335 71.8523 85.2642 72.0795C85.8948 72.3068 86.4403 72.6761 86.9005 73.1875C87.3608 73.6932 87.6818 74.3636 87.8636 75.1989C88.0454 76.0341 88.034 77.0625 87.8295 78.2841L87.6931 79.1364H77.6022L77.875 77.3977H85.9204C86.0511 76.6591 86.017 76 85.8181 75.4205C85.625 74.8409 85.2869 74.3835 84.8039 74.0483C84.3267 73.7131 83.7215 73.5455 82.9886 73.5455C82.2329 73.5455 81.5284 73.75 80.875 74.1591C80.2215 74.5625 79.6761 75.0739 79.2386 75.6932C78.8011 76.3068 78.5284 76.9318 78.4204 77.5682L78.1818 79.0682C78.0113 80.1534 78.0369 81.017 78.2585 81.6591C78.4858 82.3011 78.8806 82.7642 79.4431 83.0483C80.0056 83.3267 80.7102 83.4659 81.5568 83.4659C82.0965 83.4659 82.5937 83.392 83.0483 83.2443C83.5028 83.0909 83.909 82.8636 84.267 82.5625C84.625 82.2557 84.9261 81.875 85.1704 81.4205L87.0113 81.9659C86.6988 82.625 86.2585 83.2045 85.6903 83.7045C85.1278 84.1989 84.4687 84.5852 83.713 84.8636C82.963 85.1364 82.142 85.2727 81.25 85.2727Z" fill="black"/>
<path d="M60.5561 495.545L57.6583 513H55.5447L58.4424 495.545H60.5561ZM64.9304 505.125L63.6349 513H61.6235L63.8054 499.909H65.7485L65.4076 501.955H65.5781C65.9872 501.29 66.5411 500.756 67.24 500.352C67.9389 499.943 68.7826 499.739 69.7713 499.739C70.6463 499.739 71.3849 499.92 71.9872 500.284C72.5951 500.642 73.0241 501.188 73.2741 501.92C73.5298 502.648 73.5667 503.568 73.3849 504.682L71.9872 513H69.9758L71.3394 504.818C71.5099 503.795 71.3764 502.994 70.9389 502.415C70.5071 501.835 69.8224 501.545 68.8849 501.545C68.2372 501.545 67.6377 501.685 67.0866 501.963C66.5411 502.241 66.0781 502.648 65.6974 503.182C65.3224 503.716 65.0667 504.364 64.9304 505.125ZM74.8444 517.909L77.8615 499.909H79.8046L79.4637 501.989H79.7024C79.8842 501.761 80.1342 501.472 80.4524 501.119C80.7762 500.761 81.2109 500.443 81.7563 500.165C82.3075 499.881 83.0092 499.739 83.8615 499.739C84.9637 499.739 85.887 500.014 86.6313 500.565C87.3757 501.116 87.9012 501.898 88.2081 502.909C88.5149 503.92 88.5546 505.114 88.3274 506.489C88.1001 507.875 87.6654 509.077 87.0234 510.094C86.3813 511.105 85.5973 511.889 84.6711 512.446C83.745 512.997 82.7365 513.273 81.6456 513.273C80.8046 513.273 80.1541 513.134 79.6938 512.855C79.2336 512.571 78.8984 512.25 78.6882 511.892C78.4779 511.528 78.316 511.227 78.2024 510.989H78.0319L76.8728 517.909H74.8444ZM78.7478 506.455C78.5887 507.443 78.5887 508.315 78.7478 509.071C78.9126 509.821 79.2393 510.409 79.7279 510.835C80.2223 511.256 80.8728 511.466 81.6796 511.466C82.5206 511.466 83.2563 511.244 83.887 510.801C84.5234 510.352 85.0461 509.75 85.4552 508.994C85.87 508.233 86.1569 507.386 86.316 506.455C86.4637 505.534 86.4581 504.705 86.299 503.966C86.1399 503.222 85.816 502.634 85.3274 502.202C84.8387 501.764 84.1683 501.545 83.316 501.545C82.4978 501.545 81.7734 501.753 81.1427 502.168C80.5177 502.577 80.0007 503.151 79.5916 503.889C79.1882 504.622 78.9069 505.477 78.7478 506.455ZM99.4474 507.648L100.743 499.909H102.754L100.572 513H98.561L98.936 510.784H98.7997C98.3906 511.449 97.8196 512.014 97.0866 512.48C96.3536 512.94 95.4929 513.17 94.5042 513.17C93.686 513.17 92.9872 512.991 92.4076 512.634C91.8338 512.27 91.4247 511.724 91.1804 510.997C90.9417 510.264 90.9133 509.341 91.0951 508.227L92.4929 499.909H94.5042L93.1406 508.091C92.9872 509.045 93.1321 509.807 93.5752 510.375C94.0184 510.943 94.6576 511.227 95.4929 511.227C95.9929 511.227 96.5213 511.099 97.0781 510.844C97.6406 510.588 98.1406 510.196 98.5781 509.668C99.0213 509.139 99.311 508.466 99.4474 507.648ZM112.131 499.909L111.859 501.614H105.075L105.347 499.909H112.131ZM107.836 496.773H109.847L107.768 509.25C107.677 509.818 107.691 510.244 107.81 510.528C107.935 510.807 108.123 510.994 108.373 511.091C108.629 511.182 108.904 511.227 109.2 511.227C109.421 511.227 109.603 511.216 109.745 511.193C109.887 511.165 110.001 511.142 110.086 511.125L110.222 512.932C110.069 512.983 109.861 513.034 109.6 513.085C109.344 513.142 109.029 513.17 108.654 513.17C108.086 513.17 107.552 513.048 107.052 512.804C106.552 512.56 106.168 512.188 105.901 511.688C105.634 511.188 105.563 510.557 105.688 509.795L107.836 496.773Z" fill="black"/>
<path d="M403.518 107.545H405.632L403.723 119.102C403.524 120.295 403.066 121.361 402.35 122.298C401.635 123.23 400.723 123.966 399.615 124.506C398.507 125.04 397.268 125.307 395.899 125.307C394.529 125.307 393.382 125.04 392.456 124.506C391.529 123.966 390.865 123.23 390.461 122.298C390.058 121.361 389.956 120.295 390.154 119.102L392.064 107.545H394.177L392.285 118.932C392.149 119.784 392.214 120.543 392.481 121.207C392.748 121.866 393.197 122.386 393.828 122.767C394.464 123.142 395.268 123.33 396.24 123.33C397.211 123.33 398.078 123.142 398.839 122.767C399.6 122.386 400.22 121.866 400.697 121.207C401.18 120.543 401.49 119.784 401.626 118.932L403.518 107.545ZM405.864 129.909L408.881 111.909H410.824L410.483 113.989H410.722C410.904 113.761 411.154 113.472 411.472 113.119C411.796 112.761 412.23 112.443 412.776 112.165C413.327 111.881 414.029 111.739 414.881 111.739C415.983 111.739 416.907 112.014 417.651 112.565C418.395 113.116 418.921 113.898 419.228 114.909C419.534 115.92 419.574 117.114 419.347 118.489C419.12 119.875 418.685 121.077 418.043 122.094C417.401 123.105 416.617 123.889 415.691 124.446C414.765 124.997 413.756 125.273 412.665 125.273C411.824 125.273 411.174 125.134 410.713 124.855C410.253 124.571 409.918 124.25 409.708 123.892C409.497 123.528 409.336 123.227 409.222 122.989H409.051L407.892 129.909H405.864ZM409.767 118.455C409.608 119.443 409.608 120.315 409.767 121.071C409.932 121.821 410.259 122.409 410.747 122.835C411.242 123.256 411.892 123.466 412.699 123.466C413.54 123.466 414.276 123.244 414.907 122.801C415.543 122.352 416.066 121.75 416.475 120.994C416.89 120.233 417.176 119.386 417.336 118.455C417.483 117.534 417.478 116.705 417.318 115.966C417.159 115.222 416.836 114.634 416.347 114.202C415.858 113.764 415.188 113.545 414.336 113.545C413.517 113.545 412.793 113.753 412.162 114.168C411.537 114.577 411.02 115.151 410.611 115.889C410.208 116.622 409.926 117.477 409.767 118.455ZM426.257 125.273C425.16 125.273 424.24 124.997 423.495 124.446C422.751 123.889 422.225 123.105 421.919 122.094C421.617 121.077 421.581 119.875 421.808 118.489C422.041 117.114 422.475 115.92 423.112 114.909C423.754 113.898 424.541 113.116 425.473 112.565C426.404 112.014 427.421 111.739 428.524 111.739C429.376 111.739 430.027 111.881 430.475 112.165C430.93 112.443 431.26 112.761 431.464 113.119C431.669 113.472 431.825 113.761 431.933 113.989H432.103L433.177 107.545H435.189L432.291 125H430.348L430.689 122.989H430.45C430.262 123.227 430.001 123.528 429.666 123.892C429.331 124.25 428.887 124.571 428.336 124.855C427.791 125.134 427.098 125.273 426.257 125.273ZM426.751 123.466C427.558 123.466 428.279 123.256 428.916 122.835C429.558 122.409 430.092 121.821 430.518 121.071C430.944 120.315 431.24 119.443 431.404 118.455C431.569 117.477 431.564 116.622 431.387 115.889C431.211 115.151 430.873 114.577 430.373 114.168C429.873 113.753 429.211 113.545 428.387 113.545C427.541 113.545 426.805 113.764 426.18 114.202C425.555 114.634 425.046 115.222 424.654 115.966C424.262 116.705 423.99 117.534 423.836 118.455C423.683 119.386 423.68 120.233 423.828 120.994C423.975 121.75 424.288 122.352 424.765 122.801C425.248 123.244 425.91 123.466 426.751 123.466ZM440.055 125.307C439.225 125.307 438.498 125.151 437.873 124.838C437.248 124.52 436.785 124.062 436.484 123.466C436.183 122.864 436.1 122.136 436.237 121.284C436.367 120.534 436.62 119.926 436.995 119.46C437.37 118.989 437.825 118.619 438.359 118.352C438.899 118.08 439.478 117.878 440.098 117.747C440.723 117.611 441.345 117.506 441.964 117.432C442.771 117.33 443.427 117.25 443.933 117.193C444.439 117.136 444.819 117.043 445.075 116.912C445.331 116.781 445.487 116.557 445.544 116.239V116.17C445.68 115.335 445.569 114.685 445.211 114.219C444.853 113.747 444.214 113.511 443.294 113.511C442.339 113.511 441.541 113.722 440.899 114.142C440.257 114.562 439.782 115.011 439.475 115.489L437.703 114.807C438.169 114.011 438.725 113.392 439.373 112.949C440.021 112.5 440.7 112.187 441.41 112.011C442.12 111.83 442.805 111.739 443.464 111.739C443.885 111.739 444.359 111.79 444.887 111.892C445.416 111.989 445.91 112.19 446.37 112.497C446.836 112.804 447.186 113.267 447.419 113.886C447.657 114.506 447.691 115.335 447.521 116.375L446.089 125H444.078L444.385 123.227H444.282C444.1 123.511 443.822 123.815 443.447 124.139C443.078 124.463 442.609 124.739 442.041 124.966C441.478 125.193 440.816 125.307 440.055 125.307ZM440.635 123.5C441.43 123.5 442.126 123.344 442.723 123.031C443.325 122.719 443.808 122.315 444.171 121.821C444.541 121.327 444.771 120.807 444.862 120.261L445.169 118.42C445.066 118.523 444.865 118.616 444.564 118.702C444.262 118.781 443.921 118.852 443.541 118.915C443.166 118.972 442.799 119.023 442.441 119.068C442.089 119.108 441.805 119.142 441.589 119.17C441.055 119.239 440.546 119.349 440.064 119.503C439.586 119.651 439.183 119.875 438.853 120.176C438.529 120.472 438.328 120.875 438.248 121.386C438.129 122.085 438.296 122.614 438.751 122.972C439.206 123.324 439.833 123.5 440.635 123.5ZM457.635 111.909L457.363 113.614H450.578L450.851 111.909H457.635ZM453.34 108.773H455.351L453.272 121.25C453.181 121.818 453.195 122.244 453.314 122.528C453.439 122.807 453.627 122.994 453.877 123.091C454.132 123.182 454.408 123.227 454.703 123.227C454.925 123.227 455.107 123.216 455.249 123.193C455.391 123.165 455.505 123.142 455.59 123.125L455.726 124.932C455.573 124.983 455.365 125.034 455.104 125.085C454.848 125.142 454.533 125.17 454.158 125.17C453.59 125.17 453.056 125.048 452.556 124.804C452.056 124.56 451.672 124.188 451.405 123.688C451.138 123.188 451.067 122.557 451.192 121.795L453.34 108.773ZM463.793 125.273C462.537 125.273 461.5 124.994 460.682 124.438C459.864 123.875 459.293 123.091 458.969 122.085C458.645 121.074 458.594 119.898 458.816 118.557C459.037 117.216 459.478 116.034 460.137 115.011C460.796 113.983 461.617 113.182 462.6 112.608C463.583 112.028 464.662 111.739 465.838 111.739C466.52 111.739 467.176 111.852 467.807 112.08C468.438 112.307 468.983 112.676 469.443 113.188C469.904 113.693 470.225 114.364 470.407 115.199C470.588 116.034 470.577 117.062 470.372 118.284L470.236 119.136H460.145L460.418 117.398H468.463C468.594 116.659 468.56 116 468.361 115.42C468.168 114.841 467.83 114.384 467.347 114.048C466.87 113.713 466.265 113.545 465.532 113.545C464.776 113.545 464.071 113.75 463.418 114.159C462.765 114.562 462.219 115.074 461.782 115.693C461.344 116.307 461.071 116.932 460.963 117.568L460.725 119.068C460.554 120.153 460.58 121.017 460.801 121.659C461.029 122.301 461.424 122.764 461.986 123.048C462.549 123.327 463.253 123.466 464.1 123.466C464.64 123.466 465.137 123.392 465.591 123.244C466.046 123.091 466.452 122.864 466.81 122.562C467.168 122.256 467.469 121.875 467.713 121.42L469.554 121.966C469.242 122.625 468.801 123.205 468.233 123.705C467.671 124.199 467.012 124.585 466.256 124.864C465.506 125.136 464.685 125.273 463.793 125.273ZM409.718 159.182C408.741 159.182 407.923 159.057 407.264 158.807C406.605 158.562 406.076 158.239 405.679 157.835C405.281 157.438 404.98 157.011 404.775 156.557L406.582 155.432C406.718 155.67 406.894 155.943 407.11 156.25C407.326 156.562 407.653 156.832 408.091 157.06C408.534 157.293 409.156 157.409 409.957 157.409C411.008 157.409 411.929 157.153 412.718 156.642C413.508 156.131 413.997 155.33 414.184 154.239L414.593 151.58H414.423C414.241 151.818 413.988 152.114 413.664 152.466C413.341 152.812 412.906 153.122 412.36 153.395C411.815 153.662 411.116 153.795 410.264 153.795C409.201 153.795 408.292 153.545 407.537 153.045C406.781 152.545 406.238 151.818 405.909 150.864C405.585 149.909 405.537 148.75 405.764 147.386C405.985 146.045 406.412 144.878 407.042 143.884C407.679 142.884 408.463 142.111 409.394 141.565C410.326 141.014 411.343 140.739 412.446 140.739C413.298 140.739 413.951 140.881 414.406 141.165C414.866 141.443 415.201 141.761 415.412 142.119C415.622 142.472 415.781 142.761 415.889 142.989H416.093L416.434 140.909H418.377L416.162 154.375C415.974 155.5 415.568 156.415 414.943 157.119C414.318 157.83 413.551 158.349 412.642 158.679C411.733 159.014 410.758 159.182 409.718 159.182ZM410.775 151.989C411.576 151.989 412.289 151.804 412.914 151.435C413.545 151.065 414.068 150.534 414.483 149.841C414.897 149.148 415.184 148.318 415.343 147.352C415.502 146.409 415.491 145.577 415.309 144.855C415.127 144.134 414.784 143.568 414.278 143.159C413.778 142.75 413.122 142.545 412.309 142.545C411.451 142.545 410.71 142.761 410.085 143.193C409.466 143.625 408.963 144.205 408.576 144.932C408.19 145.659 407.923 146.466 407.775 147.352C407.627 148.261 407.633 149.065 407.792 149.764C407.951 150.457 408.275 151.003 408.764 151.401C409.258 151.793 409.929 151.989 410.775 151.989ZM423.696 154.307C422.866 154.307 422.139 154.151 421.514 153.838C420.889 153.52 420.426 153.062 420.125 152.466C419.823 151.864 419.741 151.136 419.877 150.284C420.008 149.534 420.261 148.926 420.636 148.46C421.011 147.989 421.466 147.619 422 147.352C422.539 147.08 423.119 146.878 423.738 146.747C424.363 146.611 424.985 146.506 425.605 146.432C426.412 146.33 427.068 146.25 427.573 146.193C428.079 146.136 428.46 146.043 428.716 145.912C428.971 145.781 429.127 145.557 429.184 145.239V145.17C429.321 144.335 429.21 143.685 428.852 143.219C428.494 142.747 427.855 142.511 426.934 142.511C425.98 142.511 425.181 142.722 424.539 143.142C423.897 143.562 423.423 144.011 423.116 144.489L421.343 143.807C421.809 143.011 422.366 142.392 423.014 141.949C423.662 141.5 424.341 141.187 425.051 141.011C425.761 140.83 426.446 140.739 427.105 140.739C427.525 140.739 428 140.79 428.528 140.892C429.056 140.989 429.551 141.19 430.011 141.497C430.477 141.804 430.826 142.267 431.059 142.886C431.298 143.506 431.332 144.335 431.162 145.375L429.73 154H427.718L428.025 152.227H427.923C427.741 152.511 427.463 152.815 427.088 153.139C426.718 153.463 426.25 153.739 425.681 153.966C425.119 154.193 424.457 154.307 423.696 154.307ZM424.275 152.5C425.071 152.5 425.767 152.344 426.363 152.031C426.966 151.719 427.448 151.315 427.812 150.821C428.181 150.327 428.412 149.807 428.502 149.261L428.809 147.42C428.707 147.523 428.505 147.616 428.204 147.702C427.903 147.781 427.562 147.852 427.181 147.915C426.806 147.972 426.44 148.023 426.082 148.068C425.73 148.108 425.446 148.142 425.23 148.17C424.696 148.239 424.187 148.349 423.704 148.503C423.227 148.651 422.823 148.875 422.494 149.176C422.17 149.472 421.968 149.875 421.889 150.386C421.769 151.085 421.937 151.614 422.392 151.972C422.846 152.324 423.474 152.5 424.275 152.5ZM441.276 140.909L441.003 142.614H434.219L434.492 140.909H441.276ZM436.98 137.773H438.992L436.912 150.25C436.821 150.818 436.836 151.244 436.955 151.528C437.08 151.807 437.267 151.994 437.517 152.091C437.773 152.182 438.049 152.227 438.344 152.227C438.566 152.227 438.747 152.216 438.89 152.193C439.032 152.165 439.145 152.142 439.23 152.125L439.367 153.932C439.213 153.983 439.006 154.034 438.745 154.085C438.489 154.142 438.174 154.17 437.799 154.17C437.23 154.17 436.696 154.048 436.196 153.804C435.696 153.56 435.313 153.188 435.046 152.688C434.779 152.188 434.708 151.557 434.833 150.795L436.98 137.773ZM447.434 154.273C446.178 154.273 445.141 153.994 444.323 153.438C443.505 152.875 442.934 152.091 442.61 151.085C442.286 150.074 442.235 148.898 442.456 147.557C442.678 146.216 443.118 145.034 443.777 144.011C444.436 142.983 445.257 142.182 446.24 141.608C447.223 141.028 448.303 140.739 449.479 140.739C450.161 140.739 450.817 140.852 451.448 141.08C452.078 141.307 452.624 141.676 453.084 142.188C453.544 142.693 453.865 143.364 454.047 144.199C454.229 145.034 454.218 146.062 454.013 147.284L453.877 148.136H443.786L444.059 146.398H452.104C452.235 145.659 452.201 145 452.002 144.42C451.809 143.841 451.47 143.384 450.988 143.048C450.51 142.713 449.905 142.545 449.172 142.545C448.417 142.545 447.712 142.75 447.059 143.159C446.405 143.562 445.86 144.074 445.422 144.693C444.985 145.307 444.712 145.932 444.604 146.568L444.365 148.068C444.195 149.153 444.22 150.017 444.442 150.659C444.669 151.301 445.064 151.764 445.627 152.048C446.189 152.327 446.894 152.466 447.74 152.466C448.28 152.466 448.777 152.392 449.232 152.244C449.686 152.091 450.093 151.864 450.451 151.562C450.809 151.256 451.11 150.875 451.354 150.42L453.195 150.966C452.882 151.625 452.442 152.205 451.874 152.705C451.311 153.199 450.652 153.585 449.897 153.864C449.147 154.136 448.326 154.273 447.434 154.273Z" fill="black"/>
<g filter="url(#filter0_d_8_637)">
<path d="M389.15 611.185H386.934C386.849 610.711 386.69 610.295 386.458 609.935C386.226 609.575 385.942 609.269 385.606 609.018C385.269 608.768 384.893 608.578 384.476 608.45C384.064 608.322 383.626 608.259 383.162 608.259C382.324 608.259 381.574 608.469 380.911 608.891C380.253 609.312 379.732 609.93 379.349 610.744C378.97 611.559 378.78 612.553 378.78 613.727C378.78 614.911 378.97 615.91 379.349 616.724C379.732 617.539 380.255 618.154 380.918 618.571C381.581 618.988 382.327 619.196 383.155 619.196C383.615 619.196 384.05 619.134 384.462 619.011C384.879 618.884 385.255 618.696 385.591 618.45C385.928 618.204 386.212 617.903 386.444 617.548C386.68 617.188 386.844 616.777 386.934 616.312L389.15 616.32C389.031 617.035 388.802 617.693 388.461 618.294C388.125 618.891 387.691 619.407 387.161 619.842C386.635 620.273 386.034 620.607 385.357 620.844C384.68 621.08 383.941 621.199 383.141 621.199C381.882 621.199 380.76 620.901 379.775 620.304C378.79 619.703 378.013 618.843 377.445 617.726C376.882 616.608 376.6 615.276 376.6 613.727C376.6 612.174 376.884 610.841 377.452 609.729C378.02 608.611 378.797 607.754 379.782 607.158C380.767 606.556 381.886 606.256 383.141 606.256C383.913 606.256 384.633 606.367 385.3 606.589C385.973 606.807 386.576 607.129 387.111 607.555C387.646 607.977 388.089 608.493 388.439 609.104C388.79 609.71 389.027 610.403 389.15 611.185ZM396.2 621.22C395.178 621.22 394.285 620.986 393.523 620.517C392.761 620.048 392.169 619.393 391.747 618.55C391.326 617.707 391.115 616.722 391.115 615.595C391.115 614.464 391.326 613.474 391.747 612.626C392.169 611.779 392.761 611.121 393.523 610.652C394.285 610.183 395.178 609.949 396.2 609.949C397.223 609.949 398.116 610.183 398.878 610.652C399.64 611.121 400.232 611.779 400.654 612.626C401.075 613.474 401.286 614.464 401.286 615.595C401.286 616.722 401.075 617.707 400.654 618.55C400.232 619.393 399.64 620.048 398.878 620.517C398.116 620.986 397.223 621.22 396.2 621.22ZM396.208 619.438C396.87 619.438 397.42 619.262 397.855 618.912C398.291 618.562 398.613 618.095 398.821 617.513C399.034 616.93 399.141 616.289 399.141 615.588C399.141 614.892 399.034 614.253 398.821 613.67C398.613 613.083 398.291 612.612 397.855 612.257C397.42 611.902 396.87 611.724 396.208 611.724C395.54 611.724 394.986 611.902 394.546 612.257C394.11 612.612 393.786 613.083 393.573 613.67C393.364 614.253 393.26 614.892 393.26 615.588C393.26 616.289 393.364 616.93 393.573 617.513C393.786 618.095 394.11 618.562 394.546 618.912C394.986 619.262 395.54 619.438 396.208 619.438ZM403.656 625.091V610.091H405.73V611.859H405.907C406.031 611.632 406.208 611.369 406.44 611.071C406.672 610.773 406.994 610.512 407.406 610.29C407.818 610.062 408.363 609.949 409.04 609.949C409.92 609.949 410.706 610.171 411.398 610.616C412.089 611.062 412.631 611.703 413.024 612.541C413.422 613.379 413.621 614.388 413.621 615.567C413.621 616.746 413.424 617.757 413.031 618.599C412.638 619.437 412.098 620.084 411.412 620.538C410.725 620.988 409.942 621.213 409.061 621.213C408.398 621.213 407.856 621.102 407.434 620.879C407.018 620.657 406.691 620.396 406.454 620.098C406.218 619.8 406.035 619.535 405.907 619.303H405.78V625.091H403.656ZM405.737 615.545C405.737 616.312 405.848 616.985 406.071 617.562C406.293 618.14 406.615 618.592 407.037 618.919C407.458 619.241 407.974 619.402 408.585 619.402C409.22 619.402 409.75 619.234 410.176 618.898C410.602 618.557 410.924 618.095 411.142 617.513C411.364 616.93 411.476 616.275 411.476 615.545C411.476 614.826 411.367 614.179 411.149 613.607C410.936 613.034 410.614 612.581 410.183 612.25C409.757 611.919 409.224 611.753 408.585 611.753C407.97 611.753 407.449 611.911 407.023 612.229C406.601 612.546 406.282 612.989 406.064 613.557C405.846 614.125 405.737 614.788 405.737 615.545ZM416.971 625.091C416.654 625.091 416.365 625.065 416.105 625.013C415.844 624.965 415.65 624.913 415.522 624.857L416.034 623.116C416.422 623.221 416.767 623.266 417.07 623.251C417.374 623.237 417.641 623.124 417.873 622.911C418.11 622.697 418.318 622.349 418.498 621.866L418.761 621.142L414.769 610.091H417.042L419.805 618.557H419.919L422.681 610.091H424.961L420.465 622.456C420.257 623.024 419.992 623.505 419.67 623.898C419.348 624.295 418.964 624.594 418.519 624.793C418.074 624.991 417.558 625.091 416.971 625.091Z" fill="black"/>
<path d="M439.711 586.954C440.102 586.563 440.102 585.93 439.711 585.54L433.347 579.176C432.957 578.785 432.324 578.785 431.933 579.176C431.542 579.566 431.542 580.199 431.933 580.59L437.59 586.247L431.933 591.904C431.542 592.294 431.542 592.927 431.933 593.318C432.324 593.708 432.957 593.708 433.347 593.318L439.711 586.954ZM361 587.247H439.004V585.247H361V587.247Z" fill="black"/>
<path d="M415.71 544.293C415.32 543.902 414.687 543.902 414.296 544.293L407.932 550.657C407.542 551.047 407.542 551.681 407.932 552.071C408.323 552.462 408.956 552.462 409.346 552.071L415.003 546.414L420.66 552.071C421.051 552.462 421.684 552.462 422.074 552.071C422.465 551.681 422.465 551.047 422.074 550.657L415.71 544.293ZM361 587.247H397.003V585.247H361V587.247ZM416.003 568.247V545H414.003V568.247H416.003ZM397.003 587.247C407.497 587.247 416.003 578.74 416.003 568.247H414.003C414.003 577.636 406.392 585.247 397.003 585.247V587.247Z" fill="black"/>
</g>
<g filter="url(#filter1_d_8_637)">
<circle cx="196.5" cy="567.5" r="22.5" fill="#DA6939"/>
<path d="M191.432 567.795V567.523C191.432 566.352 191.662 565.298 192.122 564.361C192.582 563.423 193.247 562.682 194.116 562.136C194.986 561.591 196.034 561.318 197.261 561.318C197.489 561.369 197.699 561.489 197.892 561.676C198.091 561.858 198.321 562.06 198.582 562.281C198.844 562.497 199.185 562.682 199.605 562.835C200.276 563.097 200.869 563.477 201.386 563.977C201.909 564.477 202.318 565.074 202.614 565.767C202.909 566.455 203.057 567.21 203.057 568.034V568.273C203.057 569.33 202.83 570.312 202.375 571.222C201.926 572.125 201.273 572.855 200.415 573.412C199.557 573.963 198.517 574.239 197.295 574.239C196.057 574.239 195 573.955 194.125 573.386C193.256 572.818 192.588 572.048 192.122 571.077C191.662 570.105 191.432 569.011 191.432 567.795ZM194.202 567.523V567.795C194.202 568.562 194.304 569.267 194.509 569.909C194.719 570.551 195.051 571.068 195.506 571.46C195.96 571.847 196.557 572.04 197.295 572.04C198.006 572.04 198.58 571.847 199.017 571.46C199.46 571.068 199.781 570.551 199.98 569.909C200.185 569.267 200.287 568.562 200.287 567.795V567.523C200.287 566.807 200.185 566.145 199.98 565.537C199.781 564.929 199.457 564.44 199.009 564.071C198.565 563.702 197.983 563.517 197.261 563.517C196.54 563.517 195.955 563.702 195.506 564.071C195.057 564.44 194.727 564.929 194.517 565.537C194.307 566.145 194.202 566.807 194.202 567.523ZM204.028 561.318V563.517H197.261V561.318H204.028Z" fill="white"/>
<path d="M166.82 605.276C166.745 604.603 166.432 604.082 165.883 603.713C165.334 603.339 164.642 603.152 163.809 603.152C163.212 603.152 162.696 603.247 162.261 603.436C161.825 603.621 161.487 603.876 161.245 604.203C161.008 604.525 160.89 604.892 160.89 605.304C160.89 605.65 160.97 605.948 161.131 606.199C161.297 606.45 161.513 606.661 161.778 606.831C162.048 606.997 162.336 607.136 162.644 607.25C162.952 607.359 163.248 607.449 163.532 607.52L164.952 607.889C165.416 608.003 165.892 608.157 166.38 608.351C166.868 608.545 167.32 608.801 167.737 609.118C168.153 609.435 168.489 609.828 168.745 610.297C169.005 610.766 169.136 611.327 169.136 611.98C169.136 612.804 168.923 613.536 168.496 614.175C168.075 614.814 167.462 615.318 166.657 615.688C165.857 616.057 164.888 616.241 163.752 616.241C162.663 616.241 161.721 616.069 160.925 615.723C160.13 615.377 159.507 614.887 159.058 614.253C158.608 613.614 158.359 612.856 158.312 611.98H160.513C160.556 612.506 160.727 612.944 161.025 613.294C161.328 613.64 161.714 613.898 162.183 614.068C162.656 614.234 163.174 614.317 163.738 614.317C164.358 614.317 164.91 614.22 165.393 614.026C165.88 613.827 166.264 613.552 166.543 613.202C166.823 612.847 166.962 612.432 166.962 611.959C166.962 611.528 166.839 611.175 166.593 610.901C166.352 610.626 166.022 610.399 165.606 610.219C165.194 610.039 164.728 609.88 164.207 609.743L162.488 609.274C161.323 608.957 160.4 608.491 159.718 607.875C159.041 607.259 158.702 606.445 158.702 605.432C158.702 604.594 158.93 603.862 159.384 603.237C159.839 602.612 160.454 602.127 161.231 601.781C162.007 601.431 162.883 601.256 163.859 601.256C164.844 601.256 165.712 601.429 166.465 601.774C167.223 602.12 167.819 602.596 168.255 603.202C168.691 603.803 168.918 604.494 168.937 605.276H166.82ZM171.588 616V605.091H173.711V616H171.588ZM172.66 603.408C172.291 603.408 171.974 603.285 171.708 603.038C171.448 602.787 171.318 602.489 171.318 602.143C171.318 601.793 171.448 601.495 171.708 601.249C171.974 600.998 172.291 600.872 172.66 600.872C173.029 600.872 173.344 600.998 173.605 601.249C173.87 601.495 174.002 601.793 174.002 602.143C174.002 602.489 173.87 602.787 173.605 603.038C173.344 603.285 173.029 603.408 172.66 603.408ZM181.142 620.318C180.276 620.318 179.53 620.205 178.905 619.977C178.285 619.75 177.778 619.449 177.385 619.075C176.992 618.701 176.698 618.292 176.504 617.847L178.33 617.094C178.457 617.302 178.628 617.522 178.841 617.754C179.059 617.991 179.352 618.192 179.722 618.358C180.096 618.524 180.576 618.607 181.163 618.607C181.968 618.607 182.634 618.41 183.159 618.017C183.685 617.629 183.947 617.009 183.947 616.156V614.011H183.812C183.685 614.243 183.5 614.501 183.259 614.786C183.022 615.07 182.695 615.316 182.278 615.524C181.862 615.732 181.32 615.837 180.652 615.837C179.79 615.837 179.014 615.635 178.322 615.233C177.636 614.826 177.091 614.227 176.689 613.436C176.291 612.641 176.092 611.663 176.092 610.503C176.092 609.343 176.289 608.348 176.682 607.52C177.08 606.691 177.624 606.057 178.315 605.616C179.007 605.171 179.79 604.949 180.666 604.949C181.343 604.949 181.89 605.062 182.307 605.29C182.723 605.512 183.048 605.773 183.28 606.071C183.517 606.369 183.699 606.632 183.827 606.859H183.983V605.091H186.064V616.241C186.064 617.179 185.846 617.948 185.411 618.55C184.975 619.151 184.385 619.596 183.642 619.885C182.903 620.174 182.07 620.318 181.142 620.318ZM181.121 614.075C181.732 614.075 182.248 613.933 182.669 613.649C183.095 613.36 183.417 612.948 183.635 612.413C183.857 611.874 183.969 611.227 183.969 610.474C183.969 609.741 183.86 609.094 183.642 608.536C183.424 607.977 183.105 607.541 182.683 607.229C182.262 606.911 181.741 606.753 181.121 606.753C180.482 606.753 179.949 606.919 179.523 607.25C179.097 607.577 178.775 608.022 178.557 608.585C178.344 609.149 178.237 609.778 178.237 610.474C178.237 611.189 178.346 611.817 178.564 612.357C178.782 612.896 179.104 613.318 179.53 613.621C179.961 613.924 180.491 614.075 181.121 614.075ZM188.912 616V605.091H190.95V606.866H191.085C191.313 606.265 191.684 605.796 192.2 605.46C192.716 605.119 193.334 604.949 194.054 604.949C194.783 604.949 195.394 605.119 195.886 605.46C196.384 605.801 196.75 606.27 196.987 606.866H197.101C197.361 606.284 197.776 605.82 198.344 605.474C198.912 605.124 199.589 604.949 200.375 604.949C201.365 604.949 202.172 605.259 202.797 605.879C203.427 606.5 203.741 607.435 203.741 608.685V616H201.618V608.884C201.618 608.145 201.417 607.61 201.014 607.278C200.612 606.947 200.131 606.781 199.572 606.781C198.881 606.781 198.344 606.994 197.96 607.42C197.577 607.842 197.385 608.384 197.385 609.047V616H195.268V608.749C195.268 608.157 195.084 607.681 194.714 607.321C194.345 606.961 193.865 606.781 193.273 606.781C192.87 606.781 192.499 606.888 192.158 607.101C191.821 607.309 191.549 607.6 191.341 607.974C191.137 608.348 191.036 608.782 191.036 609.274V616H188.912ZM211.183 616.22C210.16 616.22 209.268 615.986 208.505 615.517C207.743 615.048 207.151 614.393 206.73 613.55C206.308 612.707 206.098 611.722 206.098 610.595C206.098 609.464 206.308 608.474 206.73 607.626C207.151 606.779 207.743 606.121 208.505 605.652C209.268 605.183 210.16 604.949 211.183 604.949C212.206 604.949 213.098 605.183 213.86 605.652C214.623 606.121 215.215 606.779 215.636 607.626C216.057 608.474 216.268 609.464 216.268 610.595C216.268 611.722 216.057 612.707 215.636 613.55C215.215 614.393 214.623 615.048 213.86 615.517C213.098 615.986 212.206 616.22 211.183 616.22ZM211.19 614.438C211.853 614.438 212.402 614.262 212.838 613.912C213.273 613.562 213.595 613.095 213.804 612.513C214.017 611.93 214.123 611.289 214.123 610.588C214.123 609.892 214.017 609.253 213.804 608.67C213.595 608.083 213.273 607.612 212.838 607.257C212.402 606.902 211.853 606.724 211.19 606.724C210.522 606.724 209.968 606.902 209.528 607.257C209.092 607.612 208.768 608.083 208.555 608.67C208.347 609.253 208.243 609.892 208.243 610.588C208.243 611.289 208.347 611.93 208.555 612.513C208.768 613.095 209.092 613.562 209.528 613.912C209.968 614.262 210.522 614.438 211.19 614.438ZM218.638 616V605.091H220.762V616H218.638ZM219.711 603.408C219.342 603.408 219.024 603.285 218.759 603.038C218.499 602.787 218.369 602.489 218.369 602.143C218.369 601.793 218.499 601.495 218.759 601.249C219.024 600.998 219.342 600.872 219.711 600.872C220.08 600.872 220.395 600.998 220.656 601.249C220.921 601.495 221.053 601.793 221.053 602.143C221.053 602.489 220.921 602.787 220.656 603.038C220.395 603.285 220.08 603.408 219.711 603.408ZM227.703 616.213C226.822 616.213 226.036 615.988 225.345 615.538C224.658 615.084 224.118 614.437 223.725 613.599C223.337 612.757 223.143 611.746 223.143 610.567C223.143 609.388 223.34 608.379 223.733 607.541C224.13 606.703 224.675 606.062 225.366 605.616C226.057 605.171 226.841 604.949 227.717 604.949C228.394 604.949 228.939 605.062 229.35 605.29C229.767 605.512 230.089 605.773 230.316 606.071C230.548 606.369 230.728 606.632 230.856 606.859H230.984V601.455H233.108V616H231.034V614.303H230.856C230.728 614.535 230.544 614.8 230.302 615.098C230.065 615.396 229.739 615.657 229.322 615.879C228.905 616.102 228.366 616.213 227.703 616.213ZM228.172 614.402C228.782 614.402 229.298 614.241 229.72 613.919C230.146 613.592 230.468 613.14 230.686 612.562C230.908 611.985 231.02 611.312 231.02 610.545C231.02 609.788 230.911 609.125 230.693 608.557C230.475 607.989 230.155 607.546 229.734 607.229C229.313 606.911 228.792 606.753 228.172 606.753C227.532 606.753 227 606.919 226.574 607.25C226.147 607.581 225.825 608.034 225.608 608.607C225.395 609.179 225.288 609.826 225.288 610.545C225.288 611.275 225.397 611.93 225.615 612.513C225.833 613.095 226.154 613.557 226.581 613.898C227.011 614.234 227.542 614.402 228.172 614.402ZM163.117 629.091V630.795H156.953V629.091H163.117ZM158.643 640V627.827C158.643 627.145 158.792 626.579 159.09 626.129C159.389 625.675 159.784 625.336 160.276 625.114C160.769 624.886 161.304 624.773 161.882 624.773C162.308 624.773 162.672 624.808 162.975 624.879C163.278 624.946 163.503 625.007 163.65 625.064L163.153 626.783C163.053 626.754 162.926 626.721 162.769 626.683C162.613 626.641 162.424 626.619 162.201 626.619C161.685 626.619 161.316 626.747 161.093 627.003C160.875 627.259 160.767 627.628 160.767 628.111V640H158.643ZM172.219 635.476V629.091H174.35V640H172.262V638.111H172.148C171.897 638.693 171.494 639.179 170.941 639.567C170.391 639.95 169.707 640.142 168.888 640.142C168.187 640.142 167.567 639.988 167.027 639.68C166.492 639.368 166.071 638.906 165.763 638.295C165.46 637.685 165.308 636.929 165.308 636.03V629.091H167.432V635.774C167.432 636.518 167.638 637.109 168.05 637.55C168.462 637.99 168.997 638.21 169.655 638.21C170.053 638.21 170.448 638.111 170.841 637.912C171.239 637.713 171.568 637.412 171.828 637.01C172.093 636.607 172.224 636.096 172.219 635.476ZM179.327 633.523V640H177.203V629.091H179.241V630.866H179.376C179.627 630.289 180.02 629.825 180.555 629.474C181.095 629.124 181.774 628.949 182.594 628.949C183.337 628.949 183.988 629.105 184.547 629.418C185.105 629.725 185.539 630.185 185.846 630.795C186.154 631.406 186.308 632.161 186.308 633.061V640H184.184V633.317C184.184 632.526 183.979 631.908 183.567 631.463C183.155 631.013 182.589 630.788 181.869 630.788C181.377 630.788 180.939 630.895 180.555 631.108C180.176 631.321 179.876 631.634 179.653 632.045C179.435 632.453 179.327 632.945 179.327 633.523ZM193.751 640.22C192.695 640.22 191.786 639.981 191.024 639.503C190.266 639.02 189.684 638.355 189.277 637.507C188.87 636.66 188.666 635.689 188.666 634.595C188.666 633.487 188.874 632.509 189.291 631.662C189.708 630.81 190.295 630.144 191.052 629.666C191.81 629.188 192.702 628.949 193.73 628.949C194.559 628.949 195.297 629.103 195.946 629.411C196.595 629.714 197.118 630.14 197.515 630.689C197.918 631.238 198.157 631.88 198.233 632.614H196.166C196.052 632.102 195.792 631.662 195.385 631.293C194.982 630.923 194.443 630.739 193.765 630.739C193.174 630.739 192.655 630.895 192.21 631.207C191.77 631.515 191.426 631.955 191.18 632.528C190.934 633.097 190.811 633.769 190.811 634.545C190.811 635.341 190.932 636.027 191.173 636.605C191.415 637.183 191.756 637.63 192.196 637.947C192.641 638.265 193.164 638.423 193.765 638.423C194.168 638.423 194.532 638.35 194.859 638.203C195.191 638.052 195.468 637.836 195.69 637.557C195.917 637.277 196.076 636.941 196.166 636.548H198.233C198.157 637.254 197.927 637.884 197.544 638.438C197.16 638.991 196.647 639.427 196.003 639.744C195.363 640.062 194.613 640.22 193.751 640.22ZM205.596 629.091V630.795H199.637V629.091H205.596ZM201.235 626.477H203.359V636.797C203.359 637.209 203.42 637.519 203.544 637.727C203.667 637.931 203.825 638.071 204.019 638.146C204.218 638.217 204.434 638.253 204.666 638.253C204.836 638.253 204.985 638.241 205.113 638.217C205.241 638.194 205.34 638.175 205.411 638.161L205.795 639.915C205.672 639.962 205.497 640.009 205.269 640.057C205.042 640.109 204.758 640.137 204.417 640.142C203.858 640.152 203.338 640.052 202.855 639.844C202.372 639.635 201.981 639.313 201.683 638.878C201.384 638.442 201.235 637.895 201.235 637.237V626.477ZM207.945 640V629.091H210.069V640H207.945ZM209.018 627.408C208.648 627.408 208.331 627.285 208.066 627.038C207.805 626.787 207.675 626.489 207.675 626.143C207.675 625.793 207.805 625.495 208.066 625.249C208.331 624.998 208.648 624.872 209.018 624.872C209.387 624.872 209.702 624.998 209.962 625.249C210.227 625.495 210.36 625.793 210.36 626.143C210.36 626.489 210.227 626.787 209.962 627.038C209.702 627.285 209.387 627.408 209.018 627.408ZM217.521 640.22C216.498 640.22 215.606 639.986 214.843 639.517C214.081 639.048 213.489 638.393 213.068 637.55C212.646 636.707 212.436 635.722 212.436 634.595C212.436 633.464 212.646 632.474 213.068 631.626C213.489 630.779 214.081 630.121 214.843 629.652C215.606 629.183 216.498 628.949 217.521 628.949C218.544 628.949 219.436 629.183 220.198 629.652C220.961 630.121 221.552 630.779 221.974 631.626C222.395 632.474 222.606 633.464 222.606 634.595C222.606 635.722 222.395 636.707 221.974 637.55C221.552 638.393 220.961 639.048 220.198 639.517C219.436 639.986 218.544 640.22 217.521 640.22ZM217.528 638.438C218.191 638.438 218.74 638.262 219.176 637.912C219.611 637.562 219.933 637.095 220.142 636.513C220.355 635.93 220.461 635.289 220.461 634.588C220.461 633.892 220.355 633.253 220.142 632.67C219.933 632.083 219.611 631.612 219.176 631.257C218.74 630.902 218.191 630.724 217.528 630.724C216.86 630.724 216.306 630.902 215.866 631.257C215.43 631.612 215.106 632.083 214.893 632.67C214.685 633.253 214.58 633.892 214.58 634.588C214.58 635.289 214.685 635.93 214.893 636.513C215.106 637.095 215.43 637.562 215.866 637.912C216.306 638.262 216.86 638.438 217.528 638.438ZM227.1 633.523V640H224.976V629.091H227.015V630.866H227.15C227.401 630.289 227.794 629.825 228.329 629.474C228.868 629.124 229.548 628.949 230.367 628.949C231.11 628.949 231.761 629.105 232.32 629.418C232.879 629.725 233.312 630.185 233.62 630.795C233.928 631.406 234.081 632.161 234.081 633.061V640H231.958V633.317C231.958 632.526 231.752 631.908 231.34 631.463C230.928 631.013 230.362 630.788 229.643 630.788C229.15 630.788 228.712 630.895 228.329 631.108C227.95 631.321 227.649 631.634 227.427 632.045C227.209 632.453 227.1 632.945 227.1 633.523Z" fill="black"/>
</g>
<g filter="url(#filter2_d_8_637)">
<path d="M560.724 613.185H558.508C558.423 612.711 558.264 612.295 558.032 611.935C557.8 611.575 557.516 611.269 557.18 611.018C556.844 610.768 556.467 610.578 556.051 610.45C555.639 610.322 555.201 610.259 554.737 610.259C553.899 610.259 553.148 610.469 552.485 610.891C551.827 611.312 551.306 611.93 550.923 612.744C550.544 613.559 550.355 614.553 550.355 615.727C550.355 616.911 550.544 617.91 550.923 618.724C551.306 619.539 551.829 620.154 552.492 620.571C553.155 620.988 553.901 621.196 554.73 621.196C555.189 621.196 555.624 621.134 556.036 621.011C556.453 620.884 556.829 620.696 557.166 620.45C557.502 620.204 557.786 619.903 558.018 619.548C558.255 619.188 558.418 618.777 558.508 618.312L560.724 618.32C560.606 619.035 560.376 619.693 560.035 620.294C559.699 620.891 559.266 621.407 558.735 621.842C558.21 622.273 557.608 622.607 556.931 622.844C556.254 623.08 555.516 623.199 554.715 623.199C553.456 623.199 552.334 622.901 551.349 622.304C550.364 621.703 549.588 620.843 549.019 619.726C548.456 618.608 548.174 617.276 548.174 615.727C548.174 614.174 548.458 612.841 549.026 611.729C549.595 610.611 550.371 609.754 551.356 609.158C552.341 608.556 553.461 608.256 554.715 608.256C555.487 608.256 556.207 608.367 556.874 608.589C557.547 608.807 558.151 609.129 558.686 609.555C559.221 609.977 559.663 610.493 560.014 611.104C560.364 611.71 560.601 612.403 560.724 613.185ZM567.775 623.22C566.752 623.22 565.859 622.986 565.097 622.517C564.335 622.048 563.743 621.393 563.322 620.55C562.9 619.707 562.689 618.722 562.689 617.595C562.689 616.464 562.9 615.474 563.322 614.626C563.743 613.779 564.335 613.121 565.097 612.652C565.859 612.183 566.752 611.949 567.775 611.949C568.797 611.949 569.69 612.183 570.452 612.652C571.215 613.121 571.806 613.779 572.228 614.626C572.649 615.474 572.86 616.464 572.86 617.595C572.86 618.722 572.649 619.707 572.228 620.55C571.806 621.393 571.215 622.048 570.452 622.517C569.69 622.986 568.797 623.22 567.775 623.22ZM567.782 621.438C568.445 621.438 568.994 621.262 569.43 620.912C569.865 620.562 570.187 620.095 570.395 619.513C570.608 618.93 570.715 618.289 570.715 617.588C570.715 616.892 570.608 616.253 570.395 615.67C570.187 615.083 569.865 614.612 569.43 614.257C568.994 613.902 568.445 613.724 567.782 613.724C567.114 613.724 566.56 613.902 566.12 614.257C565.684 614.612 565.36 615.083 565.147 615.67C564.939 616.253 564.834 616.892 564.834 617.588C564.834 618.289 564.939 618.93 565.147 619.513C565.36 620.095 565.684 620.562 566.12 620.912C566.56 621.262 567.114 621.438 567.782 621.438ZM577.354 616.523V623H575.23V612.091H577.269V613.866H577.404C577.655 613.289 578.048 612.825 578.583 612.474C579.122 612.124 579.802 611.949 580.621 611.949C581.364 611.949 582.015 612.105 582.574 612.418C583.133 612.725 583.566 613.185 583.874 613.795C584.182 614.406 584.335 615.161 584.335 616.061V623H582.212V616.317C582.212 615.526 582.006 614.908 581.594 614.463C581.182 614.013 580.616 613.788 579.896 613.788C579.404 613.788 578.966 613.895 578.583 614.108C578.204 614.321 577.903 614.634 577.681 615.045C577.463 615.453 577.354 615.945 577.354 616.523ZM591.779 623.22C590.723 623.22 589.814 622.981 589.051 622.503C588.294 622.02 587.711 621.355 587.304 620.507C586.897 619.66 586.693 618.689 586.693 617.595C586.693 616.487 586.902 615.509 587.318 614.662C587.735 613.81 588.322 613.144 589.08 612.666C589.837 612.188 590.73 611.949 591.757 611.949C592.586 611.949 593.325 612.103 593.973 612.411C594.622 612.714 595.145 613.14 595.543 613.689C595.945 614.238 596.184 614.88 596.26 615.614H594.193C594.08 615.102 593.819 614.662 593.412 614.293C593.01 613.923 592.47 613.739 591.793 613.739C591.201 613.739 590.682 613.895 590.237 614.207C589.797 614.515 589.454 614.955 589.208 615.528C588.961 616.097 588.838 616.769 588.838 617.545C588.838 618.341 588.959 619.027 589.2 619.605C589.442 620.183 589.783 620.63 590.223 620.947C590.668 621.265 591.191 621.423 591.793 621.423C592.195 621.423 592.56 621.35 592.887 621.203C593.218 621.052 593.495 620.836 593.718 620.557C593.945 620.277 594.103 619.941 594.193 619.548H596.26C596.184 620.254 595.955 620.884 595.571 621.438C595.188 621.991 594.674 622.427 594.03 622.744C593.391 623.062 592.64 623.22 591.779 623.22ZM601.706 623.241C601.015 623.241 600.39 623.114 599.831 622.858C599.272 622.598 598.829 622.221 598.503 621.729C598.181 621.236 598.02 620.633 598.02 619.918C598.02 619.302 598.138 618.795 598.375 618.398C598.612 618 598.931 617.685 599.334 617.453C599.736 617.221 600.186 617.046 600.683 616.928C601.18 616.809 601.687 616.719 602.203 616.658C602.856 616.582 603.387 616.52 603.794 616.473C604.201 616.421 604.497 616.338 604.682 616.224C604.866 616.111 604.959 615.926 604.959 615.67V615.621C604.959 615 604.783 614.52 604.433 614.179C604.087 613.838 603.571 613.668 602.885 613.668C602.17 613.668 601.606 613.826 601.194 614.143C600.787 614.456 600.506 614.804 600.349 615.188L598.354 614.733C598.59 614.07 598.936 613.535 599.39 613.128C599.85 612.716 600.378 612.418 600.974 612.233C601.571 612.044 602.198 611.949 602.856 611.949C603.292 611.949 603.754 612.001 604.241 612.105C604.734 612.205 605.193 612.389 605.619 612.659C606.05 612.929 606.403 613.315 606.677 613.817C606.952 614.314 607.089 614.96 607.089 615.756V623H605.015V621.509H604.93C604.793 621.783 604.587 622.053 604.312 622.318C604.038 622.583 603.685 622.804 603.254 622.979C602.823 623.154 602.307 623.241 601.706 623.241ZM602.167 621.537C602.755 621.537 603.256 621.421 603.673 621.189C604.095 620.957 604.414 620.654 604.632 620.28C604.854 619.901 604.966 619.496 604.966 619.065V617.659C604.89 617.735 604.743 617.806 604.525 617.872C604.312 617.934 604.068 617.988 603.794 618.036C603.519 618.078 603.252 618.118 602.991 618.156C602.731 618.189 602.513 618.218 602.338 618.241C601.926 618.294 601.55 618.381 601.209 618.504C600.872 618.627 600.603 618.805 600.399 619.037C600.2 619.264 600.101 619.567 600.101 619.946C600.101 620.472 600.295 620.869 600.683 621.139C601.071 621.404 601.566 621.537 602.167 621.537ZM615.01 612.091V613.795H609.051V612.091H615.01ZM610.649 609.477H612.773V619.797C612.773 620.209 612.834 620.519 612.958 620.727C613.081 620.931 613.239 621.071 613.433 621.146C613.632 621.217 613.848 621.253 614.08 621.253C614.25 621.253 614.399 621.241 614.527 621.217C614.655 621.194 614.754 621.175 614.825 621.161L615.209 622.915C615.086 622.962 614.911 623.009 614.683 623.057C614.456 623.109 614.172 623.137 613.831 623.142C613.272 623.152 612.752 623.052 612.269 622.844C611.786 622.635 611.395 622.313 611.097 621.878C610.798 621.442 610.649 620.895 610.649 620.237V609.477ZM621.944 623.22C620.869 623.22 619.943 622.991 619.167 622.531C618.395 622.067 617.798 621.416 617.377 620.578C616.96 619.735 616.752 618.748 616.752 617.616C616.752 616.499 616.96 615.514 617.377 614.662C617.798 613.81 618.385 613.144 619.138 612.666C619.896 612.188 620.781 611.949 621.795 611.949C622.41 611.949 623.007 612.051 623.584 612.254C624.162 612.458 624.68 612.777 625.14 613.213C625.599 613.649 625.961 614.214 626.226 614.911C626.492 615.602 626.624 616.442 626.624 617.432V618.185H617.952V616.594H624.543C624.543 616.035 624.43 615.54 624.202 615.109C623.975 614.674 623.655 614.33 623.243 614.08C622.836 613.829 622.358 613.703 621.809 613.703C621.212 613.703 620.691 613.85 620.246 614.143C619.806 614.432 619.465 614.811 619.224 615.28C618.987 615.744 618.868 616.248 618.868 616.793V618.036C618.868 618.765 618.996 619.385 619.252 619.896C619.512 620.408 619.875 620.798 620.339 621.068C620.803 621.333 621.345 621.466 621.965 621.466C622.367 621.466 622.734 621.409 623.066 621.295C623.397 621.177 623.684 621.002 623.925 620.77C624.167 620.538 624.351 620.251 624.479 619.911L626.489 620.273C626.328 620.865 626.039 621.383 625.623 621.828C625.211 622.268 624.692 622.612 624.067 622.858C623.447 623.099 622.739 623.22 621.944 623.22ZM631.104 616.523V623H628.98V612.091H631.019V613.866H631.154C631.405 613.289 631.798 612.825 632.333 612.474C632.872 612.124 633.552 611.949 634.371 611.949C635.114 611.949 635.765 612.105 636.324 612.418C636.883 612.725 637.316 613.185 637.624 613.795C637.932 614.406 638.085 615.161 638.085 616.061V623H635.962V616.317C635.962 615.526 635.756 614.908 635.344 614.463C634.932 614.013 634.366 613.788 633.646 613.788C633.154 613.788 632.716 613.895 632.333 614.108C631.954 614.321 631.653 614.634 631.431 615.045C631.213 615.453 631.104 615.945 631.104 616.523ZM644.108 623.241C643.417 623.241 642.792 623.114 642.233 622.858C641.674 622.598 641.232 622.221 640.905 621.729C640.583 621.236 640.422 620.633 640.422 619.918C640.422 619.302 640.54 618.795 640.777 618.398C641.014 618 641.334 617.685 641.736 617.453C642.138 617.221 642.588 617.046 643.085 616.928C643.583 616.809 644.089 616.719 644.605 616.658C645.259 616.582 645.789 616.52 646.196 616.473C646.603 616.421 646.899 616.338 647.084 616.224C647.269 616.111 647.361 615.926 647.361 615.67V615.621C647.361 615 647.186 614.52 646.835 614.179C646.49 613.838 645.974 613.668 645.287 613.668C644.572 613.668 644.009 613.826 643.597 614.143C643.19 614.456 642.908 614.804 642.752 615.188L640.756 614.733C640.993 614.07 641.338 613.535 641.793 613.128C642.252 612.716 642.78 612.418 643.377 612.233C643.973 612.044 644.601 611.949 645.259 611.949C645.694 611.949 646.156 612.001 646.644 612.105C647.136 612.205 647.595 612.389 648.021 612.659C648.452 612.929 648.805 613.315 649.08 613.817C649.354 614.314 649.492 614.96 649.492 615.756V623H647.418V621.509H647.333C647.195 621.783 646.989 622.053 646.715 622.318C646.44 622.583 646.087 622.804 645.656 622.979C645.226 623.154 644.709 623.241 644.108 623.241ZM644.57 621.537C645.157 621.537 645.659 621.421 646.075 621.189C646.497 620.957 646.816 620.654 647.034 620.28C647.257 619.901 647.368 619.496 647.368 619.065V617.659C647.292 617.735 647.146 617.806 646.928 617.872C646.715 617.934 646.471 617.988 646.196 618.036C645.922 618.078 645.654 618.118 645.394 618.156C645.133 618.189 644.915 618.218 644.74 618.241C644.328 618.294 643.952 618.381 643.611 618.504C643.275 618.627 643.005 618.805 642.801 619.037C642.602 619.264 642.503 619.567 642.503 619.946C642.503 620.472 642.697 620.869 643.085 621.139C643.474 621.404 643.968 621.537 644.57 621.537ZM657.412 612.091V613.795H651.454V612.091H657.412ZM653.052 609.477H655.175V619.797C655.175 620.209 655.237 620.519 655.36 620.727C655.483 620.931 655.642 621.071 655.836 621.146C656.035 621.217 656.25 621.253 656.482 621.253C656.653 621.253 656.802 621.241 656.93 621.217C657.057 621.194 657.157 621.175 657.228 621.161L657.611 622.915C657.488 622.962 657.313 623.009 657.086 623.057C656.858 623.109 656.574 623.137 656.233 623.142C655.675 623.152 655.154 623.052 654.671 622.844C654.188 622.635 653.797 622.313 653.499 621.878C653.201 621.442 653.052 620.895 653.052 620.237V609.477ZM664.346 623.22C663.271 623.22 662.346 622.991 661.569 622.531C660.797 622.067 660.201 621.416 659.779 620.578C659.363 619.735 659.154 618.748 659.154 617.616C659.154 616.499 659.363 615.514 659.779 614.662C660.201 613.81 660.788 613.144 661.541 612.666C662.298 612.188 663.184 611.949 664.197 611.949C664.812 611.949 665.409 612.051 665.987 612.254C666.564 612.458 667.083 612.777 667.542 613.213C668.001 613.649 668.364 614.214 668.629 614.911C668.894 615.602 669.026 616.442 669.026 617.432V618.185H660.355V616.594H666.945C666.945 616.035 666.832 615.54 666.605 615.109C666.377 614.674 666.058 614.33 665.646 614.08C665.239 613.829 664.76 613.703 664.211 613.703C663.615 613.703 663.094 613.85 662.649 614.143C662.208 614.432 661.867 614.811 661.626 615.28C661.389 615.744 661.271 616.248 661.271 616.793V618.036C661.271 618.765 661.399 619.385 661.654 619.896C661.915 620.408 662.277 620.798 662.741 621.068C663.205 621.333 663.747 621.466 664.367 621.466C664.77 621.466 665.137 621.409 665.468 621.295C665.8 621.177 666.086 621.002 666.328 620.77C666.569 620.538 666.754 620.251 666.882 619.911L668.892 620.273C668.731 620.865 668.442 621.383 668.025 621.828C667.613 622.268 667.095 622.612 666.47 622.858C665.849 623.099 665.142 623.22 664.346 623.22Z" fill="black"/>
<path d="M647.711 587.707C648.102 587.317 648.102 586.683 647.711 586.293L641.347 579.929C640.957 579.538 640.324 579.538 639.933 579.929C639.542 580.319 639.542 580.953 639.933 581.343L645.59 587L639.933 592.657C639.542 593.047 639.542 593.681 639.933 594.071C640.324 594.462 640.957 594.462 641.347 594.071L647.711 587.707ZM569 588H647.004V586H569V588Z" fill="black"/>
<path d="M595 569L596 569L595 569ZM613 587L613 588L613 587ZM647.707 587.707C648.098 587.317 648.098 586.683 647.707 586.293L641.343 579.929C640.953 579.538 640.319 579.538 639.929 579.929C639.538 580.319 639.538 580.953 639.929 581.343L645.586 587L639.929 592.657C639.538 593.047 639.538 593.681 639.929 594.071C640.319 594.462 640.953 594.462 641.343 594.071L647.707 587.707ZM594 550L594 569L596 569L596 550L594 550ZM613 588L647 588L647 586L613 586L613 588ZM594 569C594 579.493 602.507 588 613 588L613 586C603.611 586 596 578.389 596 569L594 569Z" fill="black"/>
</g>
<defs>
<filter id="filter0_d_8_637" x="357" y="544" width="87.004" height="89.0909" filterUnits="userSpaceOnUse" color-interpolation-filters="sRGB">
<feFlood flood-opacity="0" result="BackgroundImageFix"/>
<feColorMatrix in="SourceAlpha" type="matrix" values="0 0 0 0 0 0 0 0 0 0 0 0 0 0 0 0 0 0 127 0" result="hardAlpha"/>
<feOffset dy="4"/>
<feGaussianBlur stdDeviation="2"/>
<feComposite in2="hardAlpha" operator="out"/>
<feColorMatrix type="matrix" values="0 0 0 0 0 0 0 0 0 0 0 0 0 0 0 0 0 0 0.25 0"/>
<feBlend mode="normal" in2="BackgroundImageFix" result="effect1_dropShadow_8_637"/>
<feBlend mode="normal" in="SourceGraphic" in2="effect1_dropShadow_8_637" result="shape"/>
</filter>
<filter id="filter1_d_8_637" x="152.953" y="545" width="85.1289" height="103.22" filterUnits="userSpaceOnUse" color-interpolation-filters="sRGB">
<feFlood flood-opacity="0" result="BackgroundImageFix"/>
<feColorMatrix in="SourceAlpha" type="matrix" values="0 0 0 0 0 0 0 0 0 0 0 0 0 0 0 0 0 0 127 0" result="hardAlpha"/>
<feOffset dy="4"/>
<feGaussianBlur stdDeviation="2"/>
<feComposite in2="hardAlpha" operator="out"/>
<feColorMatrix type="matrix" values="0 0 0 0 0 0 0 0 0 0 0 0 0 0 0 0 0 0 0.25 0"/>
<feBlend mode="normal" in2="BackgroundImageFix" result="effect1_dropShadow_8_637"/>
<feBlend mode="normal" in="SourceGraphic" in2="effect1_dropShadow_8_637" result="shape"/>
</filter>
<filter id="filter2_d_8_637" x="544.174" y="550" width="128.852" height="81.2415" filterUnits="userSpaceOnUse" color-interpolation-filters="sRGB">
<feFlood flood-opacity="0" result="BackgroundImageFix"/>
<feColorMatrix in="SourceAlpha" type="matrix" values="0 0 0 0 0 0 0 0 0 0 0 0 0 0 0 0 0 0 127 0" result="hardAlpha"/>
<feOffset dy="4"/>
<feGaussianBlur stdDeviation="2"/>
<feComposite in2="hardAlpha" operator="out"/>
<feColorMatrix type="matrix" values="0 0 0 0 0 0 0 0 0 0 0 0 0 0 0 0 0 0 0.25 0"/>
<feBlend mode="normal" in2="BackgroundImageFix" result="effect1_dropShadow_8_637"/>
<feBlend mode="normal" in="SourceGraphic" in2="effect1_dropShadow_8_637" result="shape"/>
</filter>
</defs>
</svg>
